<svg width="59" height="48" viewBox="0 0 59 48" fill="none" xmlns="http://www.w3.org/2000/svg">
<g clip-path="url(#clip0)">
<path d="M4.48764 39.5934C4.71752 39.876 4.83998 40.2298 4.83356 40.593C4.84529 40.8299 4.8032 41.0664 4.71042 41.2849C4.61763 41.5035 4.47652 41.6985 4.29754 41.8556C3.85095 42.1905 3.29769 42.3542 2.73933 42.3166H0V35.9821H2.68323C3.21289 35.9471 3.73833 36.0958 4.16977 36.4029C4.34305 36.5469 4.48026 36.729 4.57058 36.9347C4.6609 37.1403 4.70185 37.3641 4.69021 37.5881C4.70595 37.9376 4.59543 38.2811 4.37857 38.5567C4.17037 38.8084 3.88265 38.9829 3.56206 39.0519C3.92548 39.1177 4.25352 39.3097 4.48764 39.5934V39.5934ZM1.27461 38.6372H2.42146C2.6821 38.6563 2.94097 38.5816 3.1507 38.4268C3.23681 38.3493 3.3038 38.2532 3.34649 38.1458C3.38918 38.0385 3.40643 37.9229 3.39689 37.8079C3.40499 37.6933 3.38738 37.5783 3.34535 37.4713C3.30332 37.3643 3.2379 37.2678 3.15381 37.189C2.93781 37.0297 2.6709 36.9538 2.40276 36.9754H1.27461V38.6372ZM3.26289 41.0664C3.35493 40.9871 3.42729 40.8878 3.47432 40.7761C3.52134 40.6645 3.54178 40.5435 3.53402 40.4228C3.54104 40.3006 3.51967 40.1784 3.47158 40.0658C3.42349 39.9531 3.34995 39.8529 3.25666 39.7729C3.03228 39.6077 2.75632 39.5266 2.47755 39.5439H1.27461V41.2862H2.49313C2.7674 41.3019 3.03889 41.2244 3.26289 41.0664V41.0664Z" fill="#AFB1B8"/>
<path d="M9.97254 42.3167L8.47978 39.841H7.91882V42.3167H6.63486V35.9821H9.06566C9.67838 35.9396 10.2841 36.1324 10.7579 36.5206C11.0977 36.8643 11.3026 37.3174 11.3358 37.798C11.3689 38.2785 11.2281 38.7551 10.9386 39.1416C10.6387 39.4828 10.2291 39.7103 9.77932 39.7853L11.3687 42.3167H9.97254ZM7.91882 38.9776H8.96905C9.69829 38.9776 10.0629 38.6579 10.0629 38.0183C10.0704 37.8877 10.0504 37.757 10.0042 37.6345C9.95809 37.512 9.88681 37.4003 9.7949 37.3066C9.56445 37.1163 9.26766 37.024 8.96905 37.0497H7.90636L7.91882 38.9776Z" fill="#AFB1B8"/>
<path d="M16.9907 41.0417H14.4321L13.9803 42.3166H12.634L14.9838 36.0532H16.4391L18.7795 42.3166H17.4333L16.9907 41.0417ZM16.6479 40.0824L15.713 37.4086L14.7781 40.0824H16.6479Z" fill="#AFB1B8"/>
<path d="M25.7759 42.3166H24.5013L21.6435 38.009V42.3166H20.372V35.9821H21.6435L24.5013 40.3145V35.9821H25.7759V42.3166Z" fill="#AFB1B8"/>
<path d="M33.0496 40.8004C32.7861 41.2786 32.3845 41.6677 31.8965 41.9175C31.3417 42.1958 30.7259 42.333 30.1046 42.3167H27.8358V35.9821H30.1046C30.7249 35.966 31.3398 36.0999 31.8965 36.372C32.3844 36.6162 32.7864 37.0014 33.0496 37.4768C33.3119 37.992 33.4486 38.5613 33.4486 39.1386C33.4486 39.7159 33.3119 40.2852 33.0496 40.8004V40.8004ZM31.5911 40.6487C31.9549 40.2279 32.1549 39.6916 32.1549 39.137C32.1549 38.5824 31.9549 38.0462 31.5911 37.6253C31.1514 37.2442 30.578 37.0507 29.9955 37.0869H29.1104V41.1872H29.9955C30.578 41.2234 31.1514 41.0299 31.5911 40.6487Z" fill="#AFB1B8"/>
<path d="M17.7885 0.747314C17.7885 0.747314 34.24 6.91479 33.891 15.8395V30.9348C33.891 30.9348 17.4519 24.7643 17.7947 15.8395L17.7885 0.747314Z" fill="#AFB1B8"/>
<path d="M48.5475 27.4009C51.6545 25.2776 55.2484 23.9625 59 23.576V18.8506C54.6773 20.5049 51.0103 23.5046 48.5475 27.4009V27.4009Z" fill="#AFB1B8"/>
<path d="M46.6808 28.8243C49.2239 23.7395 53.6325 19.8158 59 17.8602V4.24414C59 4.24414 35.5708 13.0296 36.0663 25.739V47.2308C36.0663 47.2308 37.1103 46.8378 38.7526 46.1013C38.7526 45.4143 38.7526 44.7211 38.8274 44.0248C39.3123 38.1245 42.1371 32.6569 46.6808 28.8243V28.8243Z" fill="#AFB1B8"/>
<path d="M44.4526 36.8083C44.5756 35.3178 44.8502 33.8435 45.2722 32.4078C42.443 35.7177 40.7297 39.8248 40.3732 44.1517C40.3389 44.5602 40.3202 44.9687 40.3109 45.3896C41.6416 44.7552 43.1904 43.963 44.8172 43.0315C44.402 40.9844 44.2793 38.8894 44.4526 36.8083V36.8083Z" fill="#AFB1B8"/>
<path d="M45.3844 36.8857C45.2284 38.7685 45.3259 40.6636 45.6742 42.5209C52.0753 38.7176 59.268 32.8411 58.9907 25.739V25.1201C54.4173 25.6282 50.1385 27.6135 46.8117 30.7708C46.0328 32.7274 45.5517 34.7883 45.3844 36.8857V36.8857Z" fill="#AFB1B8"/>
</g>
<defs>
<clipPath id="clip0">
<rect width="59" height="46.4835" fill="white" transform="translate(0 0.747314)"/>
</clipPath>
</defs>
</svg>
