<svg width="40" height="53" viewBox="0 0 40 53" fill="none" xmlns="http://www.w3.org/2000/svg">
<g clip-path="url(#clip0)">
<path d="M16.977 3.68255H17.1136C17.3666 3.68255 17.6398 3.7077 17.9105 3.73033C19.1031 3.81352 20.2873 3.99012 21.4521 4.25847V1.42662C20.2528 1.12903 19.0297 0.936316 17.7966 0.850693C17.3286 0.815483 16.8303 0.792848 16.3193 0.780273H15.8917C13.4168 0.789478 10.9526 1.10373 8.55554 1.71584C5.8253 2.38927 3.20466 3.44343 0.771576 4.84698V32.9316C3.1143 31.6727 5.60713 30.712 8.19126 30.0721C10.2316 29.5572 12.3175 29.2405 14.4194 29.1265H14.5029C14.8546 29.1089 15.2062 29.0988 15.5679 29.0963V26.2192C12.8367 26.254 10.1193 26.6111 7.47282 27.283C6.49381 27.5345 5.5477 27.8061 4.65976 28.1079L3.64787 28.4474V6.54961L4.08046 6.34338C7.38168 4.79518 10.9522 3.8943 14.5965 3.69009C14.6268 3.68791 14.6573 3.68791 14.6876 3.69009C15.0898 3.66997 15.4946 3.65991 15.8917 3.65991H16.3269H16.3471C16.5571 3.66494 16.767 3.66997 16.977 3.68255Z" fill="#AFB1B8"/>
<path d="M24.1108 6.64761C23.4455 6.64761 22.7878 6.62497 22.1528 6.57719C21.3939 6.52186 20.6147 6.43132 19.8761 6.30808C19.4258 6.23264 18.9831 6.1421 18.553 6.04401V33.8067C20.3737 34.2526 22.2433 34.4706 24.1184 34.4556C26.5931 34.4457 29.0571 34.1323 31.4546 33.5225C34.1853 32.8482 36.8067 31.7941 39.2411 30.3914V2.80725C36.8986 4.06549 34.4069 5.02699 31.8239 5.66928C29.3032 6.30961 26.7125 6.6382 24.1108 6.64761V6.64761ZM35.3352 7.12796L36.3471 6.79096V28.6963L35.9145 28.9025C34.2552 29.6833 32.5224 30.2991 30.7412 30.741C28.5782 31.2945 26.3545 31.5792 24.1209 31.5885C23.4531 31.5885 22.7903 31.5609 22.1477 31.5055L21.4546 31.4452V28.7869V8.91862L22.2616 8.97143C22.8485 9.00916 23.4556 9.02676 24.1159 9.02676C26.9514 9.01679 29.7749 8.65863 32.5221 7.96042C33.4657 7.71395 34.4043 7.43731 35.3352 7.12796Z" fill="#AFB1B8"/>
<path d="M2.73716 42.5288C2.59169 42.3796 2.41632 42.2624 2.22239 42.1848C2.02847 42.1073 1.82032 42.0711 1.61144 42.0786C1.38882 42.0757 1.16784 42.1167 0.961298 42.1993C0.771932 42.2739 0.599797 42.386 0.455353 42.5288C0.312481 42.672 0.201322 42.8433 0.129018 43.0318C0.0497097 43.2293 0.010173 43.4403 0.012651 43.653V47.4053C0.00360335 47.6697 0.0546187 47.9328 0.161905 48.1749C0.251463 48.3672 0.380755 48.5386 0.541363 48.6779C0.692984 48.8041 0.871009 48.8952 1.06249 48.9445C1.24697 48.9958 1.43759 49.022 1.62914 49.0224C1.84044 49.0245 2.04956 48.9799 2.24134 48.8917C2.43098 48.8096 2.6028 48.6917 2.74728 48.5446C2.88817 48.3988 3.00055 48.2282 3.07868 48.0416C3.15976 47.8524 3.20108 47.6487 3.2001 47.443V47.023H2.20845V47.3575C2.2114 47.4717 2.19163 47.5854 2.15027 47.692C2.11797 47.7719 2.0688 47.8439 2.00607 47.9033C1.94464 47.9524 1.87419 47.9891 1.79864 48.0114C1.73167 48.0335 1.66173 48.0453 1.5912 48.0466C1.50266 48.0568 1.41299 48.0436 1.33125 48.0083C1.24951 47.9729 1.17861 47.9168 1.12573 47.8454C1.03225 47.6946 0.986426 47.5194 0.994184 47.3424V43.8441C0.988032 43.6501 1.02972 43.4576 1.11561 43.2833C1.16709 43.2041 1.23993 43.1409 1.32581 43.1008C1.41169 43.0608 1.50716 43.0456 1.60132 43.0569C1.68679 43.0539 1.77173 43.0716 1.84884 43.1084C1.92594 43.1452 1.99292 43.2 2.04402 43.2682C2.15499 43.4123 2.21301 43.5898 2.20845 43.7712V44.0956H3.18998V43.7133C3.19198 43.4888 3.15076 43.266 3.06856 43.0569C2.9953 42.8603 2.88254 42.6806 2.73716 42.5288V42.5288Z" fill="#AFB1B8"/>
<path d="M8.62889 42.4861C8.31268 42.222 7.91359 42.0761 7.50063 42.0736C7.29865 42.0745 7.09835 42.1102 6.90867 42.1792C6.7161 42.2475 6.53838 42.3516 6.38502 42.4861C6.22073 42.6321 6.08965 42.8113 6.0005 43.0117C5.9006 43.2409 5.85143 43.4888 5.85631 43.7385V47.3374C5.84947 47.5906 5.8987 47.8422 6.0005 48.0743C6.09025 48.2679 6.22149 48.4395 6.38502 48.5773C6.53662 48.7165 6.71465 48.8243 6.90867 48.8942C7.09835 48.9632 7.29865 48.999 7.50063 48.9998C7.70266 48.9994 7.90304 48.9637 8.09259 48.8942C8.28992 48.8233 8.47192 48.7158 8.62889 48.5773C8.78707 48.437 8.91451 48.2657 9.00329 48.0743C9.10509 47.8422 9.15432 47.5906 9.14748 47.3374V43.7385C9.15236 43.4888 9.10319 43.2409 9.00329 43.0117C8.91502 42.8134 8.78772 42.6347 8.62889 42.4861V42.4861ZM8.16595 47.3374C8.1743 47.4334 8.16092 47.5299 8.12677 47.62C8.09262 47.7101 8.03858 47.7914 7.96863 47.858C7.83765 47.9667 7.67248 48.0262 7.5019 48.0262C7.33131 48.0262 7.16614 47.9667 7.03516 47.858C6.96521 47.7914 6.91117 47.7101 6.87702 47.62C6.84287 47.5299 6.82949 47.4334 6.83784 47.3374V43.7385C6.82949 43.6426 6.84287 43.546 6.87702 43.4559C6.91117 43.3658 6.96521 43.2845 7.03516 43.2179C7.16614 43.1093 7.33131 43.0498 7.5019 43.0498C7.67248 43.0498 7.83765 43.1093 7.96863 43.2179C8.03858 43.2845 8.09262 43.3658 8.12677 43.4559C8.16092 43.546 8.1743 43.6426 8.16595 43.7385V47.3374Z" fill="#AFB1B8"/>
<path d="M16.3673 48.9445V42.1315H15.4136L14.1614 45.7379H14.1437L12.8814 42.1315H11.9378V48.9445H12.9218V44.7998H12.9395L13.9034 47.7298H14.3941L15.3656 44.7998H15.3833V48.9445H16.3673Z" fill="#AFB1B8"/>
<path d="M21.958 42.6092C21.8065 42.441 21.6152 42.3131 21.4015 42.2369C21.1712 42.1628 20.9301 42.1271 20.6881 42.1313H19.2259V48.9444H20.2074V46.2835H20.7134C21.0196 46.2973 21.3243 46.2333 21.5988 46.0974C21.8219 45.9749 22.008 45.7951 22.1376 45.5768C22.2512 45.3956 22.3277 45.1939 22.3628 44.9833C22.4014 44.7269 22.4192 44.4679 22.4159 44.2087C22.4254 43.8815 22.3931 43.5545 22.3197 43.2354C22.2543 42.9996 22.1298 42.7842 21.958 42.6092V42.6092ZM21.4521 44.6865C21.4478 44.8099 21.4167 44.9308 21.361 45.0411C21.3049 45.1459 21.2161 45.2297 21.108 45.2801C20.9626 45.3443 20.804 45.3736 20.6451 45.3656H20.1973V43.0493H20.7032C20.8556 43.0419 21.0075 43.0712 21.146 43.1348C21.2474 43.1924 21.328 43.2804 21.3762 43.3863C21.4298 43.506 21.459 43.635 21.4622 43.766C21.4622 43.9094 21.4622 44.0603 21.4622 44.2187C21.4622 44.3772 21.4723 44.5407 21.4622 44.6865H21.4521Z" fill="#AFB1B8"/>
<path d="M26.6076 42.1315H25.8032L24.2853 48.9445H25.2669L25.5553 47.4808H26.8935L27.1819 48.9445H28.1634L26.6076 42.1315ZM25.702 46.5528L26.1852 44.0831H26.2029L26.6835 46.5528H25.702Z" fill="#AFB1B8"/>
<path d="M32.9497 46.2359H32.932L31.4495 42.1315H30.506V48.9445H31.4875V44.8476H31.5077L33.0078 48.9445H33.9312V42.1315H32.9497V46.2359Z" fill="#AFB1B8"/>
<path d="M38.9476 42.1315L38.1584 44.8401H38.1381L37.3489 42.1315H36.3091L37.6575 46.0649V48.9445H38.639V46.0649L39.9874 42.1315H38.9476Z" fill="#AFB1B8"/>
<path d="M0 50.8683H0.473058V52.1812H0.794333V50.8683H1.26486V50.5992H0V50.8683Z" fill="#AFB1B8"/>
<path d="M3.97672 50.5992L3.35693 52.1812H3.69845L3.82999 51.8215H4.46748L4.60409 52.1812H4.95319L4.31823 50.5992H3.97672ZM3.92612 51.5549L4.14368 50.9689L4.36123 51.5549H3.92612Z" fill="#AFB1B8"/>
<path d="M7.90793 51.5978H8.27727V51.8015C8.16941 51.887 8.03576 51.9339 7.89781 51.9348C7.8333 51.9383 7.76886 51.9265 7.70988 51.9002C7.65091 51.874 7.59911 51.8341 7.55883 51.7839C7.47402 51.6634 7.43217 51.5182 7.43993 51.3714C7.43993 51.0193 7.59424 50.8433 7.90034 50.8433C7.98091 50.8353 8.06168 50.8563 8.12804 50.9024C8.19439 50.9486 8.24194 51.0168 8.26209 51.0948L8.57831 51.0344C8.51001 50.7251 8.28486 50.5691 7.90034 50.5691C7.69468 50.5637 7.4947 50.6366 7.34127 50.7728C7.26069 50.8515 7.19834 50.9468 7.15858 51.0519C7.11882 51.157 7.10261 51.2695 7.11107 51.3815C7.10175 51.5979 7.17493 51.8099 7.31598 51.975C7.39434 52.0549 7.4892 52.117 7.59401 52.1569C7.69883 52.1968 7.8111 52.2137 7.92311 52.2064C8.17338 52.2133 8.41652 52.1231 8.60108 51.9549V51.3312H7.90793V51.5978Z" fill="#AFB1B8"/>
<path d="M11.9226 50.5992H11.5988V52.1812H12.7195V51.9121H11.9226V50.5992Z" fill="#AFB1B8"/>
<path d="M15.3175 50.5992H14.9937V52.1812H15.3175V50.5992Z" fill="#AFB1B8"/>
<path d="M18.6365 51.6555L17.9813 50.5992H17.6676V52.1812H17.9686V51.1475L18.6112 52.1812H18.9325V50.5992H18.6365V51.6555Z" fill="#AFB1B8"/>
<path d="M21.6367 51.4845H22.4336V51.2154H21.6367V50.8683H22.4943V50.5992H21.3129V52.1812H22.5272V51.9121H21.6367V51.4845Z" fill="#AFB1B8"/>
<path d="M28.9122 51.223H28.2823V50.5992H27.961V52.1812H28.2823V51.4895H28.9122V52.1812H29.2335V50.5992H28.9122V51.223Z" fill="#AFB1B8"/>
<path d="M31.9302 51.4845H32.7296V51.2154H31.9302V50.8683H32.7903V50.5992H31.6089V52.1812H32.8207V51.9121H31.9302V51.4845Z" fill="#AFB1B8"/>
<path d="M36.0233 51.4846C36.3016 51.4418 36.4432 51.2959 36.4432 51.0444C36.4513 50.9772 36.441 50.909 36.4134 50.847C36.3858 50.785 36.3419 50.7316 36.2864 50.6923C36.1415 50.6204 35.9799 50.5883 35.8184 50.5993H35.1404V52.1812H35.4617V51.5198H35.5249C35.5934 51.5156 35.6619 51.5276 35.7248 51.555C35.7717 51.5836 35.8108 51.6234 35.8386 51.6707L36.1877 52.1737H36.5722L36.3774 51.8643C36.2913 51.7116 36.17 51.5814 36.0233 51.4846V51.4846ZM35.6995 51.2658H35.4617V50.8684H35.7147C35.8249 50.8595 35.9358 50.8724 36.041 50.9061C36.0644 50.9265 36.0828 50.9519 36.095 50.9804C36.1072 51.0089 36.1127 51.0398 36.1113 51.0707C36.1098 51.1016 36.1014 51.1318 36.0866 51.1591C36.0718 51.1863 36.051 51.2099 36.0258 51.228C35.9202 51.2601 35.8097 51.2728 35.6995 51.2658V51.2658Z" fill="#AFB1B8"/>
<path d="M39.1095 51.4845H39.9064V51.2154H39.1095V50.8683H39.9696V50.5992H38.7857V52.1812H40V51.9121H39.1095V51.4845Z" fill="#AFB1B8"/>
</g>
<defs>
<clipPath id="clip0">
<rect width="40" height="51.4286" fill="white" transform="translate(0 0.780273)"/>
</clipPath>
</defs>
</svg>
