<svg width="80" height="43" viewBox="0 0 80 43" fill="none" xmlns="http://www.w3.org/2000/svg">
<path d="M12.402 13.4148H12.3993C10.1369 13.4148 8.30299 15.1823 8.30299 17.3627V17.3653C8.30299 19.5456 10.1369 21.3131 12.3993 21.3131H12.402C14.6643 21.3131 16.4982 19.5456 16.4982 17.3653V17.3627C16.4982 15.1823 14.6643 13.4148 12.402 13.4148Z" fill="#2196F3"/>
<path d="M42.6367 12.1527C42.6303 9.12432 41.3794 6.22167 39.1578 4.08001C36.9362 1.93835 33.9249 0.732096 30.7827 0.72522V0.72522C27.6396 0.730721 24.6268 1.93637 22.404 4.07818C20.1813 6.21999 18.9297 9.12342 18.9232 12.1527V12.1527V28.8529C18.9232 28.8529 42.634 26.3076 42.6367 12.1553V12.1527Z" fill="#2196F3"/>
<path d="M-8.39233e-05 34.3342C0.00561511 36.4414 0.876472 38.4607 2.42219 39.951C3.96791 41.4412 6.06282 42.2812 8.24914 42.2874V42.2874C10.435 42.2812 12.5295 41.4416 14.0751 39.9519C15.6208 38.4622 16.492 36.4435 16.4984 34.3368V34.3368V22.7166C16.4984 22.7166 -8.39233e-05 24.4889 -8.39233e-05 34.3342ZM8.24914 36.4162C7.8219 36.4162 7.40425 36.2941 7.04901 36.0653C6.69376 35.8365 6.41689 35.5113 6.25339 35.1309C6.08989 34.7505 6.04711 34.3318 6.13046 33.928C6.21381 33.5241 6.41955 33.1531 6.72166 32.862C7.02377 32.5708 7.40868 32.3725 7.82771 32.2922C8.24675 32.2118 8.68109 32.2531 9.07581 32.4106C9.47054 32.5682 9.80791 32.8351 10.0453 33.1775C10.2826 33.5198 10.4093 33.9224 10.4093 34.3342C10.4104 34.6082 10.3553 34.8798 10.2472 35.1333C10.1391 35.3868 9.9802 35.6172 9.7795 35.8114C9.5788 36.0056 9.3403 36.1596 9.07769 36.2647C8.81507 36.3699 8.53351 36.424 8.24914 36.424V36.4162Z" fill="#2196F3"/>
<path d="M25.0891 35.1711H23.4016V36.9143H22.5227V32.6487H25.3V33.3606H23.4016V34.4622H25.0891V35.1711ZM29.3137 34.8782C29.3137 35.2981 29.2395 35.6663 29.091 35.9827C28.9426 36.2991 28.7297 36.5432 28.4524 36.7151C28.177 36.887 27.8606 36.9729 27.5031 36.9729C27.1496 36.9729 26.8342 36.8879 26.5569 36.718C26.2795 36.5481 26.0647 36.3059 25.9123 35.9915C25.76 35.675 25.6828 35.3118 25.6809 34.9016V34.6907C25.6809 34.2708 25.7561 33.9016 25.9065 33.5833C26.0588 33.2629 26.2727 33.0178 26.5481 32.8479C26.8254 32.676 27.1418 32.5901 27.4973 32.5901C27.8528 32.5901 28.1682 32.676 28.4436 32.8479C28.7209 33.0178 28.9348 33.2629 29.0852 33.5833C29.2375 33.9016 29.3137 34.2698 29.3137 34.6877V34.8782ZM28.4231 34.6848C28.4231 34.2375 28.343 33.8977 28.1828 33.6653C28.0227 33.4329 27.7942 33.3167 27.4973 33.3167C27.2024 33.3167 26.9748 33.4319 26.8147 33.6624C26.6545 33.8909 26.5735 34.2268 26.5715 34.6702V34.8782C26.5715 35.3137 26.6516 35.6516 26.8117 35.8918C26.9719 36.1321 27.2024 36.2522 27.5031 36.2522C27.7981 36.2522 28.0246 36.137 28.1828 35.9065C28.341 35.6741 28.4211 35.3362 28.4231 34.8928V34.6848ZM32.1643 35.7952C32.1643 35.6292 32.1057 35.5022 31.9885 35.4143C31.8713 35.3245 31.6604 35.2307 31.3557 35.1331C31.051 35.0334 30.8098 34.9358 30.632 34.8401C30.1477 34.5784 29.9055 34.2258 29.9055 33.7825C29.9055 33.552 29.9699 33.3469 30.0988 33.1672C30.2297 32.9856 30.4162 32.844 30.6584 32.7424C30.9026 32.6409 31.176 32.5901 31.4787 32.5901C31.7834 32.5901 32.0549 32.6458 32.2932 32.7571C32.5315 32.8665 32.716 33.0217 32.8469 33.2229C32.9797 33.4241 33.0461 33.6526 33.0461 33.9084H32.1672C32.1672 33.7131 32.1057 33.5618 31.9826 33.4543C31.8596 33.345 31.6867 33.2903 31.4641 33.2903C31.2492 33.2903 31.0822 33.3362 30.9631 33.428C30.844 33.5178 30.7844 33.637 30.7844 33.7854C30.7844 33.9241 30.8537 34.0403 30.9924 34.134C31.133 34.2278 31.3391 34.3157 31.6106 34.3977C32.1106 34.5481 32.4748 34.7346 32.7033 34.9573C32.9319 35.1799 33.0461 35.4573 33.0461 35.7893C33.0461 36.1584 32.9065 36.4485 32.6272 36.6594C32.3479 36.8684 31.9719 36.9729 31.4992 36.9729C31.1711 36.9729 30.8723 36.9133 30.6028 36.7942C30.3332 36.6731 30.1272 36.5081 29.9846 36.2991C29.844 36.0901 29.7737 35.8479 29.7737 35.5725H30.6555C30.6555 36.0432 30.9367 36.2786 31.4992 36.2786C31.7082 36.2786 31.8713 36.2366 31.9885 36.1526C32.1057 36.0667 32.1643 35.9475 32.1643 35.7952ZM36.8547 33.3606H35.5481V36.9143H34.6692V33.3606H33.3801V32.6487H36.8547V33.3606ZM39.925 35.0657H38.2375V36.2083H40.218V36.9143H37.3586V32.6487H40.2121V33.3606H38.2375V34.3772H39.925V35.0657ZM42.3127 35.3528H41.6125V36.9143H40.7336V32.6487H42.3186C42.8225 32.6487 43.2112 32.761 43.4846 32.9856C43.758 33.2102 43.8947 33.5276 43.8947 33.9377C43.8947 34.2288 43.8313 34.4719 43.7043 34.6672C43.5793 34.8606 43.3889 35.0149 43.133 35.1301L44.0559 36.8733V36.9143H43.1125L42.3127 35.3528ZM41.6125 34.6409H42.3215C42.5422 34.6409 42.7131 34.5852 42.8342 34.4739C42.9553 34.3606 43.0158 34.2053 43.0158 34.0081C43.0158 33.8069 42.9582 33.6487 42.843 33.5334C42.7297 33.4182 42.5549 33.3606 42.3186 33.3606H41.6125V34.6409ZM46.9387 35.4114V36.9143H46.0598V32.6487H47.7238C48.0442 32.6487 48.3254 32.7073 48.5676 32.8245C48.8117 32.9417 48.9992 33.1086 49.1301 33.3254C49.261 33.5403 49.3264 33.7854 49.3264 34.0608C49.3264 34.4788 49.1828 34.8088 48.8957 35.051C48.6106 35.2913 48.2151 35.4114 47.7092 35.4114H46.9387ZM46.9387 34.6995H47.7238C47.9563 34.6995 48.133 34.6448 48.2541 34.5354C48.3772 34.426 48.4387 34.2698 48.4387 34.0667C48.4387 33.8577 48.3772 33.6887 48.2541 33.5598C48.1311 33.4309 47.9612 33.3645 47.7444 33.3606H46.9387V34.6995ZM52.4992 35.0657H50.8117V36.2083H52.7922V36.9143H49.9328V32.6487H52.7863V33.3606H50.8117V34.3772H52.4992V35.0657ZM56.5774 33.3606H55.2707V36.9143H54.3918V33.3606H53.1028V32.6487H56.5774V33.3606ZM59.6477 35.0657H57.9602V36.2083H59.9406V36.9143H57.0813V32.6487H59.9348V33.3606H57.9602V34.3772H59.6477V35.0657ZM62.0354 35.3528H61.3352V36.9143H60.4563V32.6487H62.0412C62.5451 32.6487 62.9338 32.761 63.2072 32.9856C63.4807 33.2102 63.6174 33.5276 63.6174 33.9377C63.6174 34.2288 63.5539 34.4719 63.427 34.6672C63.302 34.8606 63.1115 35.0149 62.8557 35.1301L63.7785 36.8733V36.9143H62.8352L62.0354 35.3528ZM61.3352 34.6409H62.0442C62.2649 34.6409 62.4358 34.5852 62.5569 34.4739C62.6779 34.3606 62.7385 34.2053 62.7385 34.0081C62.7385 33.8069 62.6809 33.6487 62.5656 33.5334C62.4524 33.4182 62.2776 33.3606 62.0412 33.3606H61.3352V34.6409ZM66.5002 35.7952C66.5002 35.6292 66.4416 35.5022 66.3244 35.4143C66.2072 35.3245 65.9963 35.2307 65.6916 35.1331C65.3869 35.0334 65.1457 34.9358 64.968 34.8401C64.4836 34.5784 64.2414 34.2258 64.2414 33.7825C64.2414 33.552 64.3059 33.3469 64.4348 33.1672C64.5656 32.9856 64.7522 32.844 64.9944 32.7424C65.2385 32.6409 65.5119 32.5901 65.8147 32.5901C66.1194 32.5901 66.3908 32.6458 66.6291 32.7571C66.8674 32.8665 67.052 33.0217 67.1828 33.2229C67.3156 33.4241 67.382 33.6526 67.382 33.9084H66.5031C66.5031 33.7131 66.4416 33.5618 66.3186 33.4543C66.1955 33.345 66.0227 33.2903 65.8 33.2903C65.5852 33.2903 65.4182 33.3362 65.299 33.428C65.1799 33.5178 65.1203 33.637 65.1203 33.7854C65.1203 33.9241 65.1897 34.0403 65.3283 34.134C65.469 34.2278 65.675 34.3157 65.9465 34.3977C66.4465 34.5481 66.8108 34.7346 67.0393 34.9573C67.2678 35.1799 67.382 35.4573 67.382 35.7893C67.382 36.1584 67.2424 36.4485 66.9631 36.6594C66.6838 36.8684 66.3078 36.9729 65.8352 36.9729C65.507 36.9729 65.2082 36.9133 64.9387 36.7942C64.6692 36.6731 64.4631 36.5081 64.3205 36.2991C64.1799 36.0901 64.1096 35.8479 64.1096 35.5725H64.9914C64.9914 36.0432 65.2727 36.2786 65.8352 36.2786C66.0442 36.2786 66.2072 36.2366 66.3244 36.1526C66.4416 36.0667 66.5002 35.9475 66.5002 35.7952Z" fill="#2196F3"/>
</svg>
