<svg width="89" height="46" viewBox="0 0 89 46" fill="none" xmlns="http://www.w3.org/2000/svg">
<path d="M44.7405 21.8659C44.3226 21.2624 44.1226 20.5492 44.1701 19.8313V16.8815C44.1701 15.9772 44.3592 15.29 44.7373 14.8199C45.1155 14.3498 45.7651 14.1157 46.686 14.1177C47.5513 14.1177 48.1656 14.3177 48.5288 14.7179C48.925 15.2284 49.1178 15.8527 49.0736 16.4824V17.1756H47.5256V16.4734C47.5311 16.2435 47.5161 16.0137 47.4808 15.7862C47.4585 15.6306 47.3806 15.4867 47.2596 15.378C47.1007 15.2609 46.9004 15.2041 46.6988 15.219C46.4867 15.2042 46.2764 15.2641 46.1091 15.387C45.9742 15.5075 45.8844 15.6653 45.8527 15.8372C45.8083 16.0779 45.7879 16.3221 45.7918 16.5664V20.1464C45.7674 20.4918 45.8357 20.8374 45.9905 21.1517C46.0675 21.258 46.1744 21.3423 46.2994 21.3953C46.4244 21.4483 46.5626 21.4678 46.6988 21.4518C46.8971 21.467 47.0939 21.4089 47.2468 21.2897C47.373 21.1725 47.4541 21.0195 47.4776 20.8546C47.5137 20.6171 47.5298 20.3773 47.5256 20.1374V19.4112H49.0736V20.0744C49.1171 20.7308 48.929 21.3823 48.5384 21.9289C48.1827 22.367 47.5769 22.5861 46.686 22.5861C45.795 22.5861 45.1219 22.352 44.7405 21.8659Z" fill="#AFB1B8"/>
<path d="M51.1857 21.8959C50.7947 21.4368 50.5992 20.7676 50.5992 19.8823V16.7794C50.5992 15.9032 50.7947 15.24 51.1857 14.7899C51.5767 14.3398 52.2305 14.1157 53.1471 14.1177C54.0573 14.1177 54.7079 14.3418 55.0989 14.7899C55.4899 15.24 55.6886 15.9032 55.6886 16.7794V19.8823C55.6886 20.7586 55.4899 21.4308 55.0925 21.8929C54.6951 22.355 54.0477 22.5861 53.1471 22.5861C52.2466 22.5861 51.5799 22.352 51.1857 21.8959ZM53.8682 21.1517C54.0083 20.8641 54.072 20.5491 54.0541 20.2334V16.4343C54.0721 16.1248 54.0094 15.8159 53.8714 15.5341C53.7929 15.4255 53.6833 15.3398 53.5553 15.2867C53.4272 15.2337 53.2858 15.2154 53.1471 15.234C53.0081 15.2159 52.8664 15.2343 52.7379 15.2873C52.6094 15.3403 52.4992 15.4258 52.4196 15.5341C52.2787 15.815 52.2148 16.1245 52.2337 16.4343V20.2514C52.2143 20.5672 52.2781 20.8825 52.4196 21.1697C52.5099 21.2665 52.6212 21.3441 52.7461 21.3972C52.8711 21.4504 53.0067 21.4779 53.1439 21.4779C53.2812 21.4779 53.4168 21.4504 53.5417 21.3972C53.6666 21.3441 53.778 21.2665 53.8682 21.1697V21.1517Z" fill="#AFB1B8"/>
<path d="M57.5505 14.2083H59.2171L60.4702 19.9332L61.7522 14.2083H63.3739L63.5374 22.4717H62.3387L62.2105 16.7287L60.9734 22.4717H60.0119L58.7299 16.7077L58.6114 22.4717H57.3999L57.5505 14.2083Z" fill="#AFB1B8"/>
<path d="M65.4059 14.2083H68.0018C69.4974 14.2083 70.2452 14.9904 70.2452 16.5547C70.2452 18.0529 69.4579 18.801 67.8832 18.799H66.9987V22.4717H65.3962L65.4059 14.2083ZM67.6236 17.7399C67.782 17.7587 67.9428 17.7451 68.0949 17.7C68.2471 17.6549 68.387 17.5795 68.505 17.4788C68.6887 17.1997 68.7698 16.872 68.7357 16.5457C68.7441 16.2936 68.7183 16.0415 68.6588 15.7955C68.636 15.7134 68.5959 15.6363 68.5408 15.5688C68.4858 15.5013 68.417 15.4448 68.3383 15.4025C68.1159 15.3025 67.87 15.2571 67.6236 15.2704H67.0019V17.7399H67.6236Z" fill="#AFB1B8"/>
<path d="M72.5561 14.2083H74.2771L76.043 22.4717H74.5495L74.2002 20.5663H72.665L72.3061 22.4717H70.7902L72.5561 14.2083ZM74.0271 19.6092L73.4278 16.1406L72.8285 19.6092H74.0271Z" fill="#AFB1B8"/>
<path d="M77.4691 14.2083H78.5909L80.7382 18.9221V14.2083H82.0682V22.4717H81.001L78.8409 17.5508V22.4717H77.4659L77.4691 14.2083Z" fill="#AFB1B8"/>
<path d="M85.1834 19.321L83.3983 14.2198H84.9014L85.9911 17.4966L87.0134 14.2198H88.4845L86.7218 19.321V22.4717H85.1834V19.321Z" fill="#AFB1B8"/>
<path d="M47.2148 26.0846V26.5167H45.9072V29.8745H45.3592V26.5167H44.0452V26.0846H47.2148Z" fill="#AFB1B8"/>
<path d="M51.3138 29.8748H50.8908C50.8478 29.8773 50.8054 29.8645 50.7722 29.8388C50.7402 29.8168 50.7157 29.7866 50.7017 29.7518L50.3235 28.8516H48.5095L48.1313 29.7518C48.1206 29.7895 48.1008 29.8243 48.0736 29.8538C48.0401 29.8789 47.9979 29.8918 47.955 29.8898H47.532L49.1345 26.1001H49.6921L51.3138 29.8748ZM48.6601 28.4676H50.1729L49.5319 26.9253C49.4846 26.8086 49.445 26.6894 49.4133 26.5682C49.3909 26.6402 49.3716 26.7092 49.3524 26.7692L49.2947 26.9283L48.6601 28.4676Z" fill="#AFB1B8"/>
<path d="M54.0765 29.5026C54.1769 29.5075 54.2774 29.5075 54.3778 29.5026C54.4644 29.4942 54.5502 29.4792 54.6342 29.4576C54.7127 29.4396 54.7898 29.4165 54.8649 29.3886C54.9354 29.3616 55.0059 29.3285 55.0797 29.2955V28.4433H54.4387C54.4228 28.4441 54.407 28.4419 54.3921 28.4367C54.3772 28.4315 54.3636 28.4235 54.3521 28.4132C54.3416 28.4047 54.3333 28.3941 54.3277 28.3821C54.3222 28.3702 54.3196 28.3572 54.3201 28.3442V28.0531H55.5636V29.5056C55.4621 29.5736 55.3549 29.6338 55.2431 29.6857C55.1288 29.7384 55.0098 29.7816 54.8874 29.8147C54.7563 29.8508 54.6223 29.8769 54.4867 29.8927C54.3314 29.9089 54.1752 29.9169 54.0188 29.9167C53.7424 29.9189 53.4682 29.871 53.2112 29.7757C52.9712 29.6854 52.7532 29.5506 52.5702 29.3796C52.3918 29.2068 52.2513 29.0028 52.1568 28.7794C52.0557 28.5282 52.0057 28.2615 52.0093 27.9931C52.006 27.723 52.0548 27.4546 52.1536 27.2008C52.2457 26.9762 52.3865 26.7719 52.567 26.6006C52.7499 26.4301 52.968 26.2964 53.208 26.2075C53.4824 26.1108 53.7737 26.063 54.0669 26.0665C54.2161 26.0663 54.3651 26.0773 54.5124 26.0995C54.6426 26.1193 54.7704 26.1515 54.8938 26.1955C55.0059 26.2349 55.1133 26.2852 55.2143 26.3456C55.3125 26.4048 55.4057 26.471 55.4931 26.5436L55.3393 26.7777C55.3272 26.7991 55.3093 26.817 55.2873 26.8297C55.2653 26.8424 55.2401 26.8493 55.2143 26.8497C55.1788 26.8486 55.1444 26.8382 55.1149 26.8197C55.0668 26.7957 55.0156 26.7657 54.9579 26.7297C54.8897 26.6897 54.8179 26.6555 54.7431 26.6276C54.6476 26.5918 54.549 26.5637 54.4483 26.5436C54.314 26.5205 54.1777 26.5094 54.0413 26.5106C53.8298 26.5084 53.6199 26.5441 53.4227 26.6156C53.2444 26.6826 53.0836 26.785 52.9516 26.9157C52.8188 27.052 52.7173 27.2124 52.6535 27.3869C52.5103 27.7974 52.5103 28.2398 52.6535 28.6503C52.7237 28.8286 52.8328 28.9911 52.974 29.1275C53.1055 29.2575 53.265 29.3598 53.4419 29.4276C53.6457 29.4931 53.8617 29.5186 54.0765 29.5026V29.5026Z" fill="#AFB1B8"/>
<path d="M59.1851 29.4424H60.9351V29.8745H58.6499V26.0846H59.198L59.1851 29.4424Z" fill="#AFB1B8"/>
<path d="M62.7555 29.8745H62.2074V26.0846H62.7555V29.8745Z" fill="#AFB1B8"/>
<path d="M64.7938 26.1027C64.8263 26.1201 64.8547 26.1436 64.8771 26.1717L67.2199 29.0286C67.2167 28.9836 67.2167 28.9385 67.2199 28.8936C67.2199 28.8515 67.2199 28.8095 67.2199 28.7705V26.0697H67.6974V29.8749H67.4218C67.3809 29.878 67.34 29.8707 67.3032 29.8538C67.2699 29.835 67.2406 29.8106 67.2167 29.7818L64.8771 26.928C64.8771 26.973 64.8771 27.015 64.8771 27.057C64.8771 27.099 64.8771 27.138 64.8771 27.174V29.8749H64.4188V26.0847H64.7041C64.735 26.0848 64.7656 26.0909 64.7938 26.1027V26.1027Z" fill="#AFB1B8"/>
<path d="M71.7324 26.0846V26.5017H69.7903V27.753H71.3639V28.1551H69.7903V29.4485H71.7324V29.8656H69.2262V26.0846H71.7324Z" fill="#AFB1B8"/>
<path d="M14.3035 2.67975L38.6385 9.14923V31.8194L14.3035 25.3529V2.67975ZM12.7427 0.747314V26.4542L40.1961 33.7548V8.05098L12.7427 0.747314Z" fill="#AFB1B8"/>
<path d="M27.4565 45.6881L0 38.3814V12.6772L27.4565 19.981V45.6881Z" fill="#AFB1B8"/>
<path d="M13.1978 2.38866L37.2155 8.777L27.0014 18.343L2.98057 11.9517L13.1978 2.38866ZM12.7427 0.747314L0 12.6778L27.4565 19.9814L40.196 8.05085L12.7427 0.747314Z" fill="#AFB1B8"/>
<path d="M29.0013 44.242L40.196 33.7579L29.0013 30.7783V44.242Z" fill="#AFB1B8"/>
</svg>
