<svg width="41" height="43" viewBox="0 0 41 43" fill="none" xmlns="http://www.w3.org/2000/svg">
<path d="M6.34547 42.0606C6.36049 42.0609 6.37527 42.0641 6.38896 42.07C6.40265 42.0758 6.41497 42.0841 6.42521 42.0945L6.63098 42.3078C6.47126 42.4805 6.27385 42.6185 6.05225 42.7126C5.79275 42.8153 5.51308 42.8648 5.23174 42.8581C4.96736 42.8632 4.7047 42.817 4.4601 42.7223C4.23945 42.6354 4.04121 42.5048 3.87879 42.3393C3.71303 42.1677 3.58535 41.9666 3.50326 41.7479C3.41336 41.504 3.36898 41.2473 3.37208 40.9892C3.36843 40.7293 3.41641 40.4712 3.51355 40.228C3.6034 40.0078 3.73894 39.8068 3.91223 39.6366C4.08787 39.4697 4.29797 39.3385 4.52954 39.2511C4.78288 39.1586 5.05265 39.1125 5.32433 39.1154C5.5767 39.1096 5.82773 39.1517 6.06254 39.239C6.26625 39.3223 6.4533 39.4379 6.61555 39.5808L6.44321 39.8087C6.43131 39.8247 6.41651 39.8386 6.39949 39.8499C6.37915 39.863 6.35458 39.869 6.33004 39.8668C6.30334 39.8651 6.27761 39.8567 6.25545 39.8426L6.16285 39.782L6.03424 39.7044C5.97873 39.6756 5.92114 39.6505 5.86191 39.6293C5.78562 39.6036 5.70738 39.5833 5.62785 39.5687C5.52691 39.5512 5.42439 39.543 5.32176 39.5444C5.12612 39.5421 4.93197 39.5767 4.75075 39.6463C4.58174 39.7106 4.42918 39.8081 4.3032 39.9323C4.17494 40.0643 4.0761 40.2193 4.01254 40.388C3.9401 40.581 3.9044 40.7845 3.90709 40.9892C3.904 41.197 3.93969 41.4038 4.01254 41.6C4.07531 41.7673 4.17231 41.9213 4.29805 42.0533C4.41586 42.1764 4.56188 42.2725 4.72503 42.3345C4.89292 42.4001 5.07314 42.433 5.25489 42.4314C5.35987 42.433 5.46481 42.4265 5.56869 42.412C5.7383 42.3925 5.901 42.337 6.04453 42.2496C6.11653 42.2049 6.18449 42.1546 6.24773 42.0993C6.27417 42.0756 6.30895 42.0618 6.34547 42.0606V42.0606Z" fill="#AFB1B8"/>
<path d="M12.2871 40.9887C12.2903 41.2459 12.2432 41.5014 12.1482 41.7425C12.0644 41.9612 11.9323 42.1607 11.7608 42.3278C11.5892 42.4949 11.382 42.6258 11.1528 42.712C10.6492 42.893 10.0925 42.893 9.58896 42.712C9.36125 42.6245 9.15539 42.4933 8.98452 42.3266C8.81305 42.1565 8.68004 41.9553 8.59356 41.7352C8.40827 41.247 8.40827 40.7134 8.59356 40.2252C8.6813 40.005 8.81414 39.8032 8.98452 39.6313C9.15685 39.4699 9.3626 39.3437 9.58896 39.2605C10.0919 39.0763 10.6499 39.0763 11.1528 39.2605C11.3813 39.3479 11.588 39.4792 11.7598 39.6459C11.9292 39.8144 12.0612 40.0129 12.1482 40.23C12.2435 40.4727 12.2906 40.7299 12.2871 40.9887ZM11.747 40.9887C11.751 40.7829 11.718 40.578 11.6492 40.3827C11.5916 40.2154 11.4979 40.0611 11.374 39.9295C11.2534 39.8049 11.1049 39.7072 10.9393 39.6435C10.5734 39.5109 10.1684 39.5109 9.80245 39.6435C9.63684 39.7072 9.48836 39.8049 9.36776 39.9295C9.24215 40.0603 9.14747 40.2148 9.08997 40.3827C8.9591 40.7773 8.9591 41.2001 9.08997 41.5946C9.14803 41.7623 9.24265 41.9167 9.36776 42.0479C9.48851 42.1717 9.637 42.2685 9.80245 42.3315C10.169 42.4606 10.5728 42.4606 10.9393 42.3315C11.1048 42.2685 11.2533 42.1717 11.374 42.0479C11.4974 41.9159 11.591 41.7617 11.6492 41.5946C11.7183 41.3994 11.7513 41.1944 11.747 40.9887V40.9887Z" fill="#AFB1B8"/>
<path d="M16.3408 41.624L16.3948 41.7597C16.4154 41.7113 16.4334 41.6676 16.454 41.624C16.4736 41.5784 16.4959 41.5339 16.5209 41.4907L17.8352 39.2393C17.861 39.2005 17.8841 39.1763 17.9098 39.169C17.9448 39.159 17.9814 39.1549 18.0179 39.1569H18.4063V42.8188H17.9458V40.1263C17.9458 40.0924 17.9458 40.0536 17.9458 40.0124C17.9434 39.9704 17.9434 39.9283 17.9458 39.8863L16.6238 42.1693C16.607 42.2035 16.5801 42.2324 16.5464 42.2526C16.5126 42.2728 16.4734 42.2834 16.4334 42.2832H16.3588C16.3188 42.2837 16.2794 42.2732 16.2456 42.253C16.2118 42.2328 16.185 42.2037 16.1685 42.1693L14.8078 39.8718C14.8078 39.9154 14.8078 39.9591 14.8078 40.0027C14.8078 40.0463 14.8078 40.0851 14.8078 40.119V42.8115H14.3629V39.1569H14.7512C14.7877 39.1549 14.8243 39.159 14.8593 39.169C14.8912 39.1839 14.9166 39.2087 14.9313 39.2393L16.274 41.4931C16.3003 41.5348 16.3227 41.5786 16.3408 41.624V41.624Z" fill="#AFB1B8"/>
<path d="M21.2871 41.4421V42.8137H20.7726V39.1567H21.9198C22.1364 39.1528 22.3523 39.1798 22.5603 39.2367C22.7268 39.2812 22.8812 39.3589 23.013 39.4645C23.1272 39.5635 23.2153 39.6864 23.2702 39.8232C23.3309 39.9724 23.3606 40.1312 23.3576 40.2909C23.3599 40.4513 23.3275 40.6104 23.2625 40.7586C23.2006 40.8989 23.1056 41.0241 22.9847 41.1246C22.8527 41.2346 22.6976 41.3172 22.5294 41.3669C22.3292 41.4272 22.1197 41.4559 21.9095 41.4518L21.2871 41.4421ZM21.2871 41.0495H21.9095C22.0447 41.0511 22.1793 41.0323 22.3082 40.9937C22.4145 40.96 22.5125 40.9064 22.5963 40.8362C22.6736 40.7691 22.7334 40.6862 22.7712 40.5939C22.8133 40.4961 22.8343 40.3915 22.8329 40.2861C22.8389 40.1844 22.8213 40.0827 22.7813 39.9882C22.7413 39.8936 22.68 39.8083 22.6014 39.7384C22.4049 39.5938 22.1581 39.5238 21.9095 39.5421H21.2871V41.0495Z" fill="#AFB1B8"/>
<path d="M28.201 42.8187H27.7946C27.7538 42.8202 27.7138 42.8082 27.6814 42.7847C27.6522 42.7619 27.6293 42.7328 27.6145 42.6999L27.2647 41.8152H25.508L25.1453 42.6999C25.132 42.7323 25.1098 42.7607 25.081 42.7823C25.0483 42.8071 25.0072 42.82 24.9652 42.8187H24.5588L26.1021 39.1564H26.6371L28.201 42.8187ZM25.6546 41.459H27.1053L26.4931 39.9683C26.4463 39.8562 26.4076 39.7412 26.3773 39.6242L26.3182 39.8156C26.3002 39.8738 26.2796 39.9271 26.2616 39.9708L25.6546 41.459Z" fill="#AFB1B8"/>
<path d="M30.4233 39.1734C30.4541 39.1893 30.4805 39.2117 30.5005 39.2389L32.7511 41.9995C32.7511 41.9559 32.7511 41.9122 32.7511 41.871C32.7511 41.8298 32.7511 41.7886 32.7511 41.7498V39.1565H33.2115V42.8187H32.9543C32.9178 42.8198 32.8816 42.8123 32.8489 42.7969C32.8171 42.7794 32.7892 42.7564 32.7666 42.729L30.5185 39.9708C30.521 40.0128 30.521 40.0549 30.5185 40.0969C30.5185 40.1381 30.5185 40.1744 30.5185 40.2084V42.8187H30.0581V39.1565H30.3308C30.3626 39.1556 30.3942 39.1614 30.4233 39.1734V39.1734Z" fill="#AFB1B8"/>
<path d="M37.0029 41.3622V42.8164H36.4884V41.3622L35.066 39.1566H35.5265C35.5661 39.1544 35.6053 39.1655 35.6371 39.1881C35.6651 39.2116 35.6886 39.2395 35.7065 39.2705L36.5965 40.6932C36.6325 40.7538 36.6634 40.8096 36.6891 40.8629C36.7148 40.9162 36.7354 40.9671 36.7534 41.018L36.8203 40.8605C36.8452 40.8029 36.8744 40.747 36.9077 40.6932L37.7848 39.2608C37.8033 39.2322 37.8258 39.2061 37.8517 39.1832C37.8822 39.1581 37.9218 39.1451 37.9623 39.1469H38.4279L37.0029 41.3622Z" fill="#AFB1B8"/>
<path d="M16.0862 33.0108C16.31 33.0374 16.5363 33.0592 16.7652 33.0786C20.2358 31.6157 23.1718 29.2213 25.2062 26.1948C27.2406 23.1683 28.2832 19.6439 28.2036 16.0621L24.3788 12.4581C25.1565 16.2716 24.7927 20.2137 23.3282 23.8434C21.8636 27.4732 19.3561 30.6473 16.0862 33.0108V33.0108Z" fill="#AFB1B8"/>
<path d="M14.7204 32.8432L14.8233 32.8626C18.3175 30.5075 20.9816 27.2189 22.4709 23.4219C23.9603 19.6249 24.2065 15.4943 23.1776 11.5641L17.7298 6.43091C19.9333 10.6503 20.8202 15.3723 20.2875 20.048C19.7547 24.7236 17.8242 29.1607 14.7204 32.8432V32.8432Z" fill="#AFB1B8"/>
<path d="M33.1961 20.2939C32.2706 24.2294 30.0227 27.7788 26.7863 30.4149C25.8411 31.1891 24.8216 31.8787 23.7409 32.475C26.3763 31.7451 28.7985 30.4548 30.8209 28.7034C32.8433 26.9519 34.4119 24.7863 35.4056 22.3734L33.1961 20.2939Z" fill="#AFB1B8"/>
<path d="M32.3293 19.7145L29.1835 16.7504C29.1234 20.1298 28.1038 23.4324 26.2307 26.3149C24.3576 29.1974 21.6994 31.5546 18.5323 33.1415H18.5477C19.2535 33.1412 19.9586 33.1016 20.6595 33.0227C23.6193 31.8844 26.2339 30.0734 28.2702 27.7512C30.3065 25.4291 31.701 22.668 32.3293 19.7145V19.7145Z" fill="#AFB1B8"/>
<path d="M15.1757 4.26617L11.4229 0.72522C8.06808 1.94677 5.18278 4.09422 3.14464 6.88649C1.1065 9.67877 0.0104686 12.9858 0 16.3747H0C0.0125737 20.1194 1.3502 23.7532 3.80116 26.7009C6.25213 29.6487 9.67642 31.742 13.5321 32.6496C16.974 28.6982 18.9892 23.8157 19.2847 18.7114C19.5803 13.6071 18.1409 8.54693 15.1757 4.26617V4.26617Z" fill="#AFB1B8"/>
<path d="M41 19.1694C40.9864 14.7265 39.1073 10.4693 35.7732 7.32768C32.4391 4.18609 27.921 2.41551 23.2059 2.40272V2.40272C21.0271 2.40059 18.8668 2.77944 16.8347 3.52001L39.8117 25.1702C40.5984 23.2565 41.0014 21.2217 41 19.1694V19.1694Z" fill="#AFB1B8"/>
</svg>
