<svg width="45" height="50" viewBox="0 0 45 50" fill="none" xmlns="http://www.w3.org/2000/svg">
<path d="M6 0.769287L13.3076 7.61122H33.6924V26.697L41 33.539V0.769287H6Z" fill="#AFB1B8"/>
<path d="M0 7.32288V39.1564H34V26.5028L13.5231 7.33075L0 7.32288ZM27.5231 34.5H5.38008V13.0903H6.9453V33.0502H27.5231V34.5Z" fill="#AFB1B8"/>
<path d="M9.79102 45.0952L10.6089 43.4106H11.2925L10.1011 45.6567V46.9653H9.48096V45.6567L8.28711 43.4106H8.97314L9.79102 45.0952ZM13.3018 46.1377H11.9248L11.6367 46.9653H10.9946L12.3374 43.4106H12.8916L14.2368 46.9653H13.5923L13.3018 46.1377ZM12.0981 45.6396H13.1284L12.6133 44.165L12.0981 45.6396ZM15.7358 46.0059C15.7358 45.8415 15.7806 45.6909 15.8701 45.5542C15.9596 45.4159 16.1362 45.2523 16.3999 45.0635C16.2616 44.8893 16.1647 44.7412 16.1094 44.6191C16.0557 44.4971 16.0288 44.3791 16.0288 44.2651C16.0288 43.9868 16.1134 43.7671 16.2827 43.606C16.452 43.4432 16.6799 43.3618 16.9663 43.3618C17.2251 43.3618 17.4367 43.4383 17.6011 43.5913C17.7671 43.7427 17.8501 43.9307 17.8501 44.1553C17.8501 44.3034 17.8127 44.4401 17.7378 44.5654C17.6629 44.6891 17.54 44.8128 17.3691 44.9365L17.1274 45.1123L17.8135 45.9229C17.9128 45.7275 17.9624 45.5103 17.9624 45.271H18.4775C18.4775 45.7088 18.375 46.0677 18.1699 46.3477L18.6924 46.9653H18.0039L17.8037 46.7285C17.5498 46.9189 17.2471 47.0142 16.8955 47.0142C16.5439 47.0142 16.2624 46.9214 16.0508 46.7358C15.8408 46.5487 15.7358 46.3053 15.7358 46.0059ZM16.9126 46.5405C17.1128 46.5405 17.3 46.4738 17.4741 46.3403L16.6978 45.4248L16.6221 45.4785C16.4268 45.6266 16.3291 45.7959 16.3291 45.9863C16.3291 46.1507 16.382 46.2842 16.4878 46.3867C16.5936 46.4893 16.7352 46.5405 16.9126 46.5405ZM16.5854 44.2505C16.5854 44.3872 16.6693 44.5589 16.8369 44.7656L17.1079 44.5801L17.1836 44.519C17.2845 44.4295 17.335 44.3148 17.335 44.1748C17.335 44.082 17.3 44.0031 17.23 43.938C17.16 43.8713 17.0713 43.8379 16.9639 43.8379C16.8483 43.8379 16.7563 43.877 16.688 43.9551C16.6196 44.0332 16.5854 44.1317 16.5854 44.2505ZM23.043 45.8081C23.0072 46.1873 22.8672 46.4836 22.623 46.6968C22.3789 46.9084 22.0542 47.0142 21.6489 47.0142C21.3657 47.0142 21.1159 46.9474 20.8994 46.814C20.6846 46.6789 20.5186 46.4876 20.4014 46.2402C20.2842 45.9928 20.2231 45.7056 20.2183 45.3784V45.0464C20.2183 44.7111 20.2777 44.4157 20.3965 44.1602C20.5153 43.9046 20.6854 43.7077 20.9067 43.5693C21.1297 43.431 21.3869 43.3618 21.6782 43.3618C22.0705 43.3618 22.3862 43.4684 22.6255 43.6816C22.8647 43.8949 23.0039 44.196 23.043 44.585H22.4277C22.3984 44.3294 22.3236 44.1455 22.2031 44.0332C22.0843 43.9193 21.9093 43.8623 21.6782 43.8623C21.4097 43.8623 21.203 43.9608 21.0581 44.1577C20.9149 44.353 20.8416 44.6403 20.8384 45.0195V45.3345C20.8384 45.7186 20.9067 46.0116 21.0435 46.2134C21.1818 46.4152 21.3836 46.5161 21.6489 46.5161C21.8914 46.5161 22.0737 46.4616 22.1958 46.3525C22.3179 46.2435 22.3952 46.062 22.4277 45.8081H23.043ZM26.4341 45.2808C26.4341 45.6291 26.3739 45.9351 26.2534 46.1987C26.133 46.4608 25.9604 46.6626 25.7358 46.8042C25.5129 46.9442 25.2557 47.0142 24.9644 47.0142C24.6763 47.0142 24.4191 46.9442 24.1929 46.8042C23.9683 46.6626 23.7941 46.4616 23.6704 46.2012C23.5483 45.9408 23.4865 45.6405 23.4849 45.3003V45.1001C23.4849 44.7534 23.5459 44.4474 23.668 44.1821C23.7917 43.9168 23.965 43.7142 24.188 43.5742C24.4126 43.4326 24.6698 43.3618 24.9595 43.3618C25.2492 43.3618 25.5055 43.4318 25.7285 43.5718C25.9531 43.7101 26.1265 43.9103 26.2485 44.1724C26.3706 44.4328 26.4325 44.7363 26.4341 45.083V45.2808ZM25.8164 45.0952C25.8164 44.7013 25.7415 44.3994 25.5918 44.1895C25.4437 43.9795 25.2329 43.8745 24.9595 43.8745C24.6925 43.8745 24.4834 43.9795 24.332 44.1895C24.1823 44.3978 24.1058 44.6932 24.1025 45.0757V45.2808C24.1025 45.6714 24.1782 45.9733 24.3296 46.1865C24.4826 46.3997 24.6942 46.5063 24.9644 46.5063C25.2378 46.5063 25.4478 46.4022 25.5942 46.1938C25.7424 45.9855 25.8164 45.6812 25.8164 45.2808V45.0952Z" fill="#AFB1B8"/>
</svg>
