<svg width="59" height="48" fill="none" xmlns="http://www.w3.org/2000/svg"><g clip-path="url(#clip0)" fill="#AFB1B8"><path d="M4.488 39.593c.23.283.352.637.346 1a1.571 1.571 0 01-.536 1.263c-.447.334-1 .498-1.559.46H0v-6.334h2.683a2.302 2.302 0 011.487.42 1.45 1.45 0 01.52 1.186 1.46 1.46 0 01-.311.969 1.457 1.457 0 01-.817.495c.363.066.692.258.926.541zm-3.213-.956H2.42c.261.02.52-.055.73-.21a.752.752 0 00.246-.62.772.772 0 00-.243-.618 1.115 1.115 0 00-.751-.214H1.275v1.662zm1.988 2.43a.786.786 0 00.271-.644.793.793 0 00-.277-.65 1.19 1.19 0 00-.78-.23H1.276v1.743h1.218c.274.016.546-.062.77-.22zM9.973 42.317L8.48 39.84h-.561v2.476H6.635v-6.335h2.43a2.408 2.408 0 011.693.539 2.014 2.014 0 01.18 2.62c-.3.342-.709.57-1.159.644l1.59 2.532H9.973zm-2.054-3.34h1.05c.73 0 1.094-.32 1.094-.959a.935.935 0 00-.268-.711 1.143 1.143 0 00-.826-.257H7.906l.013 1.928zM16.99 41.042h-2.558l-.452 1.275h-1.346l2.35-6.264h1.455l2.34 6.264h-1.346l-.442-1.275zm-.342-.96l-.935-2.673-.935 2.673h1.87zM25.776 42.317H24.5l-2.858-4.308v4.308h-1.271v-6.335h1.271l2.858 4.333v-4.333h1.275v6.335zM33.05 40.8a2.743 2.743 0 01-1.153 1.117 3.776 3.776 0 01-1.792.4h-2.27v-6.335h2.27a3.854 3.854 0 011.791.39c.488.244.89.63 1.154 1.105a3.662 3.662 0 010 3.323zm-1.459-.151a2.311 2.311 0 000-3.024 2.226 2.226 0 00-1.596-.538h-.885v4.1h.886a2.226 2.226 0 001.595-.538zM17.788.747S34.24 6.915 33.892 15.84v15.096s-16.44-6.17-16.096-15.095L17.788.746zM48.547 27.4A22.638 22.638 0 0159 23.577v-4.725a21.414 21.414 0 00-10.453 8.55z"/><path d="M46.68 28.824A22.298 22.298 0 0159 17.86V4.244S35.57 13.03 36.066 25.74v21.492s1.044-.393 2.687-1.13c0-.687 0-1.38.074-2.076a22.276 22.276 0 017.854-15.2z"/><path d="M44.453 36.808c.123-1.49.397-2.965.82-4.4a20.688 20.688 0 00-4.9 11.744c-.034.408-.053.817-.062 1.238a68.244 68.244 0 004.506-2.358 22.085 22.085 0 01-.364-6.224zM45.384 36.886a21.113 21.113 0 00.29 5.635c6.401-3.803 13.594-9.68 13.317-16.782v-.619a21.072 21.072 0 00-12.18 5.65 21.06 21.06 0 00-1.427 6.116z"/></g><defs><clipPath id="clip0"><path fill="#fff" transform="translate(0 .747)" d="M0 0h59v46.483H0z"/></clipPath></defs></svg>