<svg width="80" height="43" fill="none" xmlns="http://www.w3.org/2000/svg"><path d="M12.402 13.415h-.003c-2.262 0-4.096 1.767-4.096 3.948v.002c0 2.18 1.834 3.948 4.096 3.948h.003c2.262 0 4.096-1.767 4.096-3.948v-.002c0-2.18-1.834-3.948-4.096-3.948zM42.637 12.153c-.007-3.029-1.258-5.931-3.48-8.073-2.22-2.142-5.232-3.348-8.374-3.355-3.143.006-6.156 1.211-8.379 3.353-2.223 2.142-3.474 5.045-3.48 8.075v16.7s23.71-2.545 23.713-16.698v-.002zM0 34.334c.006 2.107.876 4.127 2.422 5.617a8.433 8.433 0 005.827 2.336 8.433 8.433 0 005.826-2.335c1.546-1.49 2.417-3.508 2.423-5.615v-11.62S0 24.489 0 34.334zm8.25 2.082c-.428 0-.846-.122-1.201-.35a2.1 2.1 0 01-.796-.935c-.163-.38-.206-.8-.123-1.203a2.06 2.06 0 01.592-1.066c.302-.291.687-.49 1.106-.57.419-.08.853-.039 1.248.119.395.157.732.424.97.767a2.029 2.029 0 01.201 1.955 2.079 2.079 0 01-.467.678c-.201.195-.44.349-.702.454a2.23 2.23 0 01-.829.159v-.008zM25.09 35.171h-1.688v1.743h-.88V32.65H25.3v.712h-1.898v1.101h1.687v.71zm4.224-.293c0 .42-.075.788-.223 1.105-.148.316-.361.56-.639.732a1.755 1.755 0 01-.949.258c-.353 0-.669-.085-.946-.255a1.695 1.695 0 01-.645-.727 2.511 2.511 0 01-.231-1.09v-.21c0-.42.075-.79.226-1.108.152-.32.366-.565.641-.735.277-.172.594-.258.95-.258.355 0 .67.086.946.258.277.17.49.415.641.735.152.319.229.687.229 1.105v.19zm-.89-.193c0-.448-.081-.787-.241-1.02a.783.783 0 00-.686-.348.782.782 0 00-.682.345c-.16.229-.242.565-.244 1.008v.208c0 .436.08.774.24 1.014.16.24.391.36.692.36a.775.775 0 00.68-.346c.158-.232.238-.57.24-1.013v-.208zm3.74 1.11a.447.447 0 00-.176-.38c-.117-.09-.328-.184-.632-.282a4.575 4.575 0 01-.724-.293c-.484-.262-.727-.614-.727-1.058 0-.23.065-.435.194-.615.13-.181.317-.323.56-.425.244-.101.517-.152.82-.152.304 0 .576.056.814.167.239.11.423.265.554.466.133.201.2.43.2.685h-.88c0-.195-.061-.346-.184-.454-.123-.109-.296-.164-.519-.164-.215 0-.382.046-.5.138a.426.426 0 00-.18.357c0 .14.07.255.208.349.141.094.347.182.619.264.5.15.864.337 1.092.56.229.222.343.5.343.831 0 .37-.14.66-.419.87-.28.21-.655.314-1.128.314-.328 0-.627-.06-.896-.179a1.438 1.438 0 01-.618-.495 1.27 1.27 0 01-.211-.727h.881c0 .471.282.707.844.707.21 0 .372-.042.49-.126a.418.418 0 00.175-.358zm4.69-2.434h-1.306v3.553h-.879v-3.553H33.38v-.712h3.475v.712zm3.071 1.705h-1.688v1.142h1.981v.706h-2.86V32.65h2.854v.712h-1.975v1.016h1.688v.689zm2.388.287h-.7v1.561h-.88V32.65h1.586c.503 0 .892.112 1.166.337.273.224.41.542.41.952 0 .29-.064.534-.19.73a1.282 1.282 0 01-.572.462l.923 1.743v.041h-.944l-.8-1.561zm-.7-.712h.709c.22 0 .391-.056.512-.167a.607.607 0 00.182-.466c0-.201-.058-.36-.173-.475-.113-.115-.288-.172-.524-.172h-.707v1.28zm5.326.77v1.503h-.88V32.65h1.665c.32 0 .601.058.844.175.244.118.431.285.562.501.131.215.196.46.196.736 0 .418-.143.748-.43.99-.285.24-.68.36-1.187.36h-.77zm0-.712h.785c.232 0 .409-.054.53-.164.123-.109.185-.265.185-.468a.704.704 0 00-.185-.507c-.123-.13-.293-.196-.51-.2h-.805v1.34zm5.56.367h-1.687v1.142h1.98v.706h-2.86V32.65h2.854v.712h-1.974v1.016h1.687v.689zm4.078-1.705h-1.306v3.553h-.88v-3.553h-1.288v-.712h3.474v.712zm3.07 1.705H57.96v1.142h1.98v.706h-2.859V32.65h2.854v.712H57.96v1.016h1.688v.689zm2.388.287h-.7v1.561h-.879V32.65h1.585c.504 0 .893.112 1.166.337.274.224.41.542.41.952 0 .29-.063.534-.19.73a1.283 1.283 0 01-.571.462l.922 1.743v.041h-.943l-.8-1.561zm-.7-.712h.71c.22 0 .39-.056.512-.167a.607.607 0 00.181-.466c0-.201-.057-.36-.172-.475-.114-.115-.288-.172-.525-.172h-.706v1.28zm5.165 1.154a.447.447 0 00-.176-.38c-.117-.09-.328-.184-.632-.282a4.57 4.57 0 01-.724-.293c-.484-.262-.727-.614-.727-1.058 0-.23.065-.435.194-.615.13-.181.317-.323.56-.425.243-.101.517-.152.82-.152.304 0 .576.056.814.167.238.11.423.265.554.466.133.201.199.43.199.685h-.879c0-.195-.061-.346-.184-.454-.124-.109-.296-.164-.519-.164-.215 0-.382.046-.501.138a.426.426 0 00-.179.357c0 .14.07.255.208.349.141.094.347.182.618.264.5.15.865.337 1.093.56.229.222.343.5.343.831 0 .37-.14.66-.419.87-.28.21-.655.314-1.128.314-.328 0-.627-.06-.896-.179a1.439 1.439 0 01-.618-.495 1.27 1.27 0 01-.211-.727h.881c0 .471.282.707.844.707.21 0 .372-.042.49-.126a.418.418 0 00.175-.358z" fill="#2196F3"/></svg>