<svg width="41" height="43" fill="none" xmlns="http://www.w3.org/2000/svg"><path d="M6.345 42.06a.116.116 0 01.08.034l.206.214c-.16.172-.357.31-.579.405-.26.102-.539.152-.82.145a2.03 2.03 0 01-.772-.136 1.672 1.672 0 01-.957-.974c-.09-.244-.134-.5-.13-.759-.005-.26.043-.518.14-.761.09-.22.226-.421.4-.591.175-.167.385-.298.617-.386a2.25 2.25 0 01.794-.136 1.99 1.99 0 01.739.124c.203.083.39.199.553.342l-.173.228a.175.175 0 01-.044.04.11.11 0 01-.069.018.158.158 0 01-.075-.024l-.092-.061-.129-.078a1.395 1.395 0 00-.406-.135 1.66 1.66 0 00-.306-.025 1.543 1.543 0 00-.571.102 1.29 1.29 0 00-.448.286 1.325 1.325 0 00-.29.456 1.648 1.648 0 00-.106.601c-.003.208.033.415.106.611.062.167.16.321.285.453.118.123.264.22.427.282.168.065.348.098.53.096.105.002.21-.005.314-.019.17-.02.332-.075.476-.162.072-.045.14-.095.203-.15a.154.154 0 01.097-.04zM12.287 40.989c.003.257-.044.512-.139.754a1.635 1.635 0 01-.387.585 1.757 1.757 0 01-.608.384 2.32 2.32 0 01-1.564 0 1.72 1.72 0 01-.995-.977 2.12 2.12 0 010-1.51c.087-.22.22-.422.39-.594.173-.161.379-.287.605-.37a2.282 2.282 0 011.564 0c.228.087.435.218.607.385.17.168.301.367.388.584a2 2 0 01.14.759zm-.54 0a1.722 1.722 0 00-.098-.606 1.26 1.26 0 00-.275-.454 1.208 1.208 0 00-.435-.285 1.674 1.674 0 00-1.137 0 1.208 1.208 0 00-.712.739 1.92 1.92 0 000 1.212 1.206 1.206 0 00.712.737c.367.129.77.129 1.137 0 .166-.063.314-.16.435-.284.123-.132.217-.286.275-.453.07-.196.102-.4.098-.606zM16.34 41.624l.055.136c.02-.049.038-.092.059-.136.02-.046.042-.09.067-.133l1.314-2.252c.026-.038.05-.063.075-.07a.328.328 0 01.108-.012h.388v3.662h-.46v-2.693-.114a1.105 1.105 0 010-.126l-1.322 2.283a.2.2 0 01-.078.084.218.218 0 01-.113.03h-.074c-.04 0-.08-.01-.113-.03a.197.197 0 01-.077-.084l-1.361-2.297v2.94h-.445v-3.655h.388a.328.328 0 01.108.012.15.15 0 01.072.07l1.343 2.254a.803.803 0 01.067.131zM21.287 41.442v1.372h-.514v-3.657h1.147c.216-.004.432.023.64.08.167.044.321.122.453.227a.938.938 0 01.257.36c.06.148.09.307.088.467.002.16-.03.32-.096.468-.061.14-.156.265-.277.366-.132.11-.287.192-.456.242-.2.06-.41.089-.62.085l-.622-.01zm0-.392h.623c.135.001.27-.018.398-.056a.847.847 0 00.288-.158.645.645 0 00.175-.242.752.752 0 00.062-.308.663.663 0 00-.052-.298.699.699 0 00-.18-.25 1.04 1.04 0 00-.691-.196h-.623v1.508zM28.201 42.819h-.406a.182.182 0 01-.114-.034.225.225 0 01-.067-.085l-.35-.885h-1.756l-.363.885a.197.197 0 01-.064.082.183.183 0 01-.116.037h-.406l1.543-3.663h.535l1.564 3.663zm-2.546-1.36h1.45l-.612-1.49a2.558 2.558 0 01-.116-.345l-.059.192a1.825 1.825 0 01-.056.155l-.607 1.488zM30.423 39.173c.031.016.058.039.078.066l2.25 2.76v-.128-2.714h.46v3.662h-.257a.231.231 0 01-.105-.022.284.284 0 01-.082-.068l-2.249-2.758c.003.042.003.084 0 .126v2.721h-.46v-3.661h.273c.032-.001.063.004.092.016zM37.003 41.362v1.454h-.515v-1.454l-1.422-2.205h.46a.174.174 0 01.111.031.31.31 0 01.07.082l.89 1.423c.035.06.066.117.092.17.026.053.046.104.064.155l.067-.157c.025-.058.054-.114.088-.168l.877-1.432a.377.377 0 01.067-.078.163.163 0 01.11-.036h.466l-1.425 2.215zM16.086 33.01c.224.027.45.05.68.069 3.47-1.463 6.406-3.858 8.44-6.884 2.035-3.027 3.077-6.551 2.998-10.133l-3.825-3.604a19.792 19.792 0 01-1.05 11.385c-1.465 3.63-3.973 6.804-7.243 9.168z" fill="#AFB1B8"/><path d="M14.72 32.843l.103.02c3.494-2.355 6.159-5.644 7.648-9.441a19.125 19.125 0 00.707-11.858L17.73 6.431c2.203 4.22 3.09 8.941 2.558 13.617-.533 4.676-2.464 9.113-5.568 12.795zM33.196 20.294c-.925 3.935-3.173 7.485-6.41 10.12a20.224 20.224 0 01-3.045 2.061 18.252 18.252 0 007.08-3.772 16.904 16.904 0 004.585-6.33l-2.21-2.08z" fill="#AFB1B8"/><path d="M32.33 19.715l-3.146-2.965c-.06 3.38-1.08 6.682-2.953 9.565-1.873 2.882-4.532 5.24-7.699 6.826h.016c.706 0 1.41-.04 2.112-.118 2.96-1.139 5.574-2.95 7.61-5.272 2.037-2.322 3.431-5.083 4.06-8.037zM15.176 4.266L11.423.726c-3.355 1.22-6.24 3.368-8.278 6.16C1.107 9.68.01 12.986 0 16.375c.013 3.744 1.35 7.378 3.801 10.326 2.451 2.948 5.875 5.041 9.731 5.949 3.442-3.952 5.457-8.834 5.753-13.939.295-5.104-1.144-10.164-4.11-14.445zM41 19.17c-.014-4.444-1.893-8.7-5.227-11.842-3.334-3.142-7.852-4.912-12.567-4.925a18.569 18.569 0 00-6.371 1.117l22.977 21.65a15.742 15.742 0 001.188-6z" fill="#AFB1B8"/></svg>