<svg width="40" height="53" fill="none" xmlns="http://www.w3.org/2000/svg"><g clip-path="url(#clip0)" fill="#AFB1B8"><path d="M16.977 3.683h.137c.253 0 .526.025.796.047 1.193.084 2.377.26 3.542.528V1.427c-1.2-.298-2.422-.49-3.655-.576a29.562 29.562 0 00-1.478-.07h-.427c-2.475.008-4.94.323-7.336.935A29.915 29.915 0 00.772 4.847v28.085a31.847 31.847 0 017.42-2.86 32.69 32.69 0 016.227-.945h.084c.352-.018.703-.028 1.065-.03v-2.878a34.694 34.694 0 00-8.095 1.064c-.98.252-1.925.523-2.813.825l-1.012.34V6.55l.432-.207A28.527 28.527 0 0114.597 3.69a.635.635 0 01.09 0 24.2 24.2 0 011.205-.03h.455c.21.005.42.01.63.023z"/><path d="M24.11 6.648a26.206 26.206 0 01-4.234-.34c-.45-.075-.893-.166-1.323-.264v27.763c1.82.446 3.69.664 5.565.649a30.254 30.254 0 007.337-.934 30.004 30.004 0 007.786-3.13V2.806a31.987 31.987 0 01-7.417 2.862c-2.52.64-5.112.97-7.713.979zm11.225.48l1.012-.337v21.905l-.433.206a27.966 27.966 0 01-5.173 1.839 27.162 27.162 0 01-6.62.848c-.668 0-1.33-.028-1.973-.083l-.693-.06V8.918l.807.052c.587.038 1.194.056 1.854.056a34.623 34.623 0 008.406-1.067 44.908 44.908 0 002.813-.832zM2.737 42.529a1.494 1.494 0 00-1.126-.45 1.692 1.692 0 00-.65.12 1.445 1.445 0 00-.832.832c-.08.198-.119.41-.116.622v3.752c-.01.265.042.528.149.77.09.192.219.364.38.503.151.126.329.217.52.267.185.05.376.077.567.077.211.003.42-.042.612-.13a1.6 1.6 0 00.506-.347 1.63 1.63 0 00.332-.503c.08-.19.122-.393.121-.599v-.42h-.992v.334a.863.863 0 01-.058.335.601.601 0 01-.144.211.703.703 0 01-.415.143.509.509 0 01-.465-.2.881.881 0 01-.132-.504v-3.498a1.184 1.184 0 01.122-.56.506.506 0 01.485-.227.532.532 0 01.443.211.792.792 0 01.164.503v.325h.982v-.383a1.751 1.751 0 00-.121-.656 1.542 1.542 0 00-.332-.528zM8.629 42.486a1.777 1.777 0 00-1.128-.412c-.202 0-.403.036-.592.105a1.541 1.541 0 00-.908.832c-.1.23-.15.478-.145.728v3.598c-.007.254.043.505.144.737.09.194.221.366.385.503.152.14.33.247.524.317.19.07.39.105.592.106a1.73 1.73 0 001.128-.423c.158-.14.286-.311.374-.503.102-.232.151-.483.144-.737v-3.599a1.734 1.734 0 00-.144-.726 1.625 1.625 0 00-.374-.526zm-.463 4.851a.64.64 0 01-.197.521.73.73 0 01-.934 0 .644.644 0 01-.197-.52v-3.6a.64.64 0 01.197-.52.731.731 0 01.934 0 .644.644 0 01.197.52v3.6zM16.367 48.944v-6.813h-.953l-1.253 3.607h-.017l-1.263-3.606h-.943v6.813h.984V44.8h.018l.963 2.93h.491l.972-2.93h.017v4.145h.984zM21.958 42.61a1.366 1.366 0 00-.556-.373 2.205 2.205 0 00-.714-.106h-1.462v6.813h.981v-2.66h.506c.307.013.611-.05.886-.187.223-.122.409-.302.539-.52.113-.181.19-.383.225-.594.038-.256.056-.515.053-.774a3.844 3.844 0 00-.096-.974 1.445 1.445 0 00-.362-.626zm-.506 2.077a.852.852 0 01-.091.354.55.55 0 01-.253.24 1.02 1.02 0 01-.463.085h-.448v-2.317h.506a.95.95 0 01.443.086.553.553 0 01.23.251c.054.12.083.249.086.38v.453c0 .158.01.322 0 .468h-.01zM26.608 42.132h-.805l-1.518 6.813h.982l.288-1.464h1.338l.289 1.463h.981l-1.555-6.813zm-.906 4.42l.483-2.469h.018l.48 2.47h-.981zM32.95 46.236h-.018l-1.483-4.104h-.943v6.813h.982v-4.097h.02l1.5 4.096h.923v-6.813h-.981v4.105zM38.948 42.132l-.79 2.708h-.02l-.79-2.709H36.31l1.349 3.934v2.88h.981v-2.88l1.348-3.933h-1.04zM0 50.868h.473v1.313h.321v-1.313h.47V50.6H0v.27zM3.977 50.6l-.62 1.581h.341l.132-.36h.637l.137.36h.35L4.317 50.6h-.341zm-.05.955l.217-.586.217.586h-.435zM7.908 51.598h.37v.203a.617.617 0 01-.38.134.407.407 0 01-.34-.151.656.656 0 01-.118-.413c0-.352.154-.528.46-.528a.34.34 0 01.362.252l.316-.06c-.068-.31-.293-.466-.678-.466a.81.81 0 00-.559.204.772.772 0 00-.23.608.857.857 0 00.205.594.776.776 0 00.607.231.967.967 0 00.678-.251v-.624h-.693v.267zM11.923 50.6h-.324v1.581h1.12v-.269h-.796V50.6zM15.318 50.6h-.324v1.581h.324V50.6zM18.637 51.656l-.656-1.057h-.313v1.582h.3v-1.033l.643 1.033h.322V50.6h-.296v1.057zM21.637 51.484h.797v-.269h-.797v-.347h.857V50.6h-1.181v1.582h1.214v-.269h-.89v-.428zM28.912 51.223h-.63v-.624h-.321v1.582h.321v-.691h.63v.691h.322V50.6h-.322v.624zM31.93 51.484h.8v-.269h-.8v-.347h.86V50.6H31.61v1.582h1.212v-.269h-.89v-.428zM36.023 51.485c.279-.043.42-.19.42-.44a.375.375 0 00-.157-.353.913.913 0 00-.468-.093h-.678v1.582h.322v-.661h.063a.434.434 0 01.2.035.333.333 0 01.114.116l.349.503h.384l-.195-.31a1.105 1.105 0 00-.354-.38zm-.324-.22h-.237v-.397h.253a.847.847 0 01.326.038.206.206 0 01-.015.322.921.921 0 01-.327.038zM39.11 51.484h.796v-.269h-.797v-.347h.86V50.6h-1.183v1.582H40v-.269h-.89v-.428z"/></g><defs><clipPath id="clip0"><path fill="#fff" transform="translate(0 .78)" d="M0 0h40v51.429H0z"/></clipPath></defs></svg>