<svg width="89" height="46" fill="none" xmlns="http://www.w3.org/2000/svg"><path d="M44.74 21.866a3.197 3.197 0 01-.57-2.035v-2.95c0-.904.19-1.591.567-2.061.378-.47 1.028-.704 1.949-.702.865 0 1.48.2 1.843.6.396.51.589 1.135.545 1.764v.694h-1.548v-.703c.005-.23-.01-.46-.045-.687a.679.679 0 00-.221-.408.843.843 0 00-.561-.159.893.893 0 00-.59.168.799.799 0 00-.256.45c-.045.24-.065.485-.061.73v3.58a1.96 1.96 0 00.198 1.005c.078.106.184.19.31.243a.79.79 0 00.399.057.794.794 0 00.548-.162.736.736 0 00.23-.435c.037-.238.053-.478.049-.718v-.726h1.548v.663a2.859 2.859 0 01-.536 1.855c-.355.438-.961.657-1.852.657-.891 0-1.564-.234-1.946-.72zM51.186 21.896c-.391-.46-.587-1.128-.587-2.014V16.78c0-.876.196-1.539.587-1.99.39-.45 1.044-.673 1.961-.671.91 0 1.56.224 1.952.672.39.45.59 1.113.59 1.99v3.102c0 .877-.2 1.549-.596 2.01-.398.463-1.045.694-1.946.694-.9 0-1.567-.234-1.961-.69zm2.682-.744c.14-.288.204-.603.186-.919v-3.799a1.805 1.805 0 00-.183-.9.738.738 0 00-.316-.247.794.794 0 00-.408-.053.803.803 0 00-.41.053.748.748 0 00-.317.247c-.141.281-.205.59-.186.9v3.817c-.02.316.044.631.186.919a.96.96 0 00.326.227 1.017 1.017 0 00.796 0 .958.958 0 00.326-.227v-.018zM57.55 14.208h1.667l1.253 5.725 1.282-5.725h1.622l.163 8.264H62.34l-.128-5.743-1.238 5.743h-.961l-1.282-5.764-.119 5.764H57.4l.15-8.264zM65.406 14.208h2.596c1.495 0 2.243.782 2.243 2.347 0 1.498-.787 2.246-2.362 2.244H67v3.673h-1.603l.01-8.264zm2.218 3.532c.158.019.319.005.47-.04.153-.045.293-.12.411-.221.184-.28.265-.607.23-.933a2.794 2.794 0 00-.076-.75.622.622 0 00-.118-.227.67.67 0 00-.203-.167 1.543 1.543 0 00-.714-.132h-.622v2.47h.622zM72.556 14.208h1.721l1.766 8.264h-1.494l-.349-1.906h-1.535l-.359 1.906H70.79l1.766-8.264zm1.471 5.401l-.6-3.468-.599 3.468h1.2zM77.47 14.208h1.12l2.148 4.714v-4.714h1.33v8.264h-1.067l-2.16-4.921v4.92h-1.375l.003-8.263zM85.183 19.321l-1.785-5.101h1.503l1.09 3.277 1.022-3.277h1.471l-1.762 5.101v3.15h-1.539v-3.15zM47.215 26.085v.432h-1.308v3.358h-.548v-3.358h-1.314v-.432h3.17zM51.314 29.875h-.423a.177.177 0 01-.119-.036.194.194 0 01-.07-.087l-.378-.9H48.51l-.379.9a.252.252 0 01-.057.102.184.184 0 01-.119.036h-.423l1.603-3.79h.557l1.622 3.775zm-2.654-1.407h1.513l-.641-1.543a2.912 2.912 0 01-.119-.357c-.022.072-.041.141-.06.201l-.058.16-.635 1.539zM54.077 29.503c.1.005.2.005.3 0 .087-.009.173-.024.257-.045a1.85 1.85 0 00.23-.07c.071-.026.142-.06.216-.093v-.852h-.641a.123.123 0 01-.087-.03.083.083 0 01-.032-.069v-.29h1.244v1.452a2.365 2.365 0 01-.677.309 2.676 2.676 0 01-.4.078 4.455 4.455 0 01-.468.024 2.273 2.273 0 01-.808-.141 1.938 1.938 0 01-.64-.396 1.829 1.829 0 01-.414-.6 2.031 2.031 0 01-.148-.787 2.11 2.11 0 01.145-.792c.092-.225.232-.43.413-.6.183-.17.401-.305.641-.393.274-.097.566-.145.859-.141.15 0 .298.01.445.032.13.02.258.052.382.096.112.04.22.09.32.15.099.06.192.126.28.199l-.155.234a.14.14 0 01-.052.052.15.15 0 01-.073.02.199.199 0 01-.1-.03 1.931 1.931 0 01-.156-.09 1.373 1.373 0 00-.215-.102 1.899 1.899 0 00-.295-.084 2.283 2.283 0 00-.407-.033 1.763 1.763 0 00-.618.105c-.179.067-.34.169-.471.3a1.33 1.33 0 00-.298.47c-.144.411-.144.854 0 1.264.07.179.179.341.32.478.132.13.291.232.468.3.204.065.42.09.635.075zM59.185 29.442h1.75v.433H58.65v-3.79h.548l-.013 3.357zM62.755 29.875h-.548v-3.79h.548v3.79zM64.794 26.103c.032.017.06.04.083.069l2.343 2.857a.95.95 0 010-.135V26.07h.477v3.805h-.275a.24.24 0 01-.119-.021.31.31 0 01-.086-.072l-2.34-2.854v2.946h-.458v-3.79h.285c.031 0 .062.007.09.019zM71.732 26.085v.417H69.79v1.251h1.574v.402H69.79v1.293h1.942v.418h-2.506v-3.781h2.506zM14.303 2.68l24.335 6.47v22.67l-24.334-6.467V2.68zM12.743.747v25.707l27.453 7.3V8.052L12.743.747z" fill="#AFB1B8"/><path d="M27.456 45.688L0 38.381V12.677l27.456 7.304v25.707z" fill="#AFB1B8"/><path d="M13.198 2.389l24.017 6.388-10.214 9.566-24.02-6.391 10.217-9.563zM12.743.747L0 12.677l27.456 7.304 12.74-11.93L12.743.747zM29.001 44.242l11.195-10.484-11.195-2.98v13.464z" fill="#AFB1B8"/></svg>