<svg aria-hidden="true" style="position:absolute;width:0;height:0" xmlns="http://www.w3.org/2000/svg" overflow="hidden"><defs><symbol id="icon-antenna" viewBox="0 0 32 32"><path fill="var(--color1, #212121)" d="M30.773 22.098l-8.443-8.505.937-4.616c.225.09.485.144.758.146h.033a2.16 2.16 0 10-2.029-1.42l-.005-.015-4.96.606L8.973.161a.53.53 0 00-.376-.16.536.536 0 00-.373.155L6.712 1.66a.535.535 0 000 .754l.814.825C6.383 5.301 5.71 7.761 5.71 10.378c0 4.106 1.656 7.824 4.336 10.525l-.001-.001a.49.49 0 00.146.097 2.986 2.986 0 00-.052.546v6.188h-6.4a2.669 2.669 0 00-2.667 2.666v1.067c0 .295.239.534.534.534H26.14a.534.534 0 00.533-.534v-1.067a2.67 2.67 0 00-2.666-2.666h-6.4v-2.742a14.64 14.64 0 003.047.32h.002a14.784 14.784 0 007.117-1.822l-.077.039.818.823a.534.534 0 00.376.16.536.536 0 00.373-.155l1.512-1.504a.535.535 0 000-.754zM23.28 6.233a1.067 1.067 0 11.752 1.822h-.004a1.066 1.066 0 01-.747-1.822h-.002zm-1.256 3.504l-.598 2.946-1.175-1.183 1.774-1.763zm-.605-.902l-1.92 1.909-1.486-1.493 3.406-.416zM24.004 28.8a1.6 1.6 0 011.6 1.6v.534H2.138V30.4a1.6 1.6 0 011.6-1.6h20.267zm-7.466-2.134v1.067h-5.334v-1.067h5.334zM11.204 25.6v-4.053c0-1.294 1.196-2.346 2.667-2.346s2.667 1.053 2.667 2.346V25.6h-5.334zm6.4-1.696v-2.357c0-1.882-1.675-3.413-3.733-3.413h-.058c-1.353 0-2.54.707-3.213 1.771l-.009.016a13.817 13.817 0 01-3.812-9.55c0-2.314.567-4.496 1.569-6.414l-.036.077 18.602 18.709c-1.823.947-3.979 1.502-6.266 1.502-1.079 0-2.128-.124-3.136-.357l.093.018zm11.289-.684L7.836 2.039l.754-.752 7.935 7.98c.004 0 .006.007.009.01l13.115 13.191-.757.752z"/><path fill="var(--color2, #2196f3)" d="M13.876 20.267h-.007a1.6 1.6 0 00-.003 3.2h.007a1.6 1.6 0 00.002-3.2zm.373 1.978a.534.534 0 11-.378-.912.533.533 0 01.373.911h.005z"/></symbol><symbol id="icon-astronaut" viewBox="0 0 32 32"><path fill="var(--color2, #2196f3)" d="M31.974 4.524a.535.535 0 00-.427-.362h-.003l-1.911-.278-.855-1.731c-.179-.365-.777-.365-.956 0l-.855 1.731-1.911.278a.534.534 0 00-.296.91l1.383 1.348-.326 1.903a.532.532 0 00.774.562l1.709-.899 1.709.899a.534.534 0 00.773-.565v.003l-.326-1.903 1.383-1.348a.535.535 0 00.134-.55l.001.004zm-2.463 1.327a.53.53 0 00-.153.472l.191 1.114-1-.526a.525.525 0 00-.501.001l.003-.001-1 .526.191-1.114a.53.53 0 00-.152-.472l-.811-.789 1.119-.163a.532.532 0 00.402-.292l.5-1.013.5 1.013a.532.532 0 00.402.292l1.119.162-.809.79zm-3.377 14.671h-1.067v1.067h1.067v-1.067zm0 2.134h-1.067v1.066h1.067v-1.066zm1.066-1.067h-1.067v1.067H27.2v-1.067zm-2.133 0H24v1.067h1.067v-1.067zm-2.667 4.8h-1.067v1.067H22.4v-1.067zm0 2.134h-1.067v1.067H22.4v-1.067zm1.067-1.067H22.4v1.067h1.067v-1.067zm-2.133 0h-1.067v1.067h1.067v-1.067zM16 24.256h-1.066v1.067H16v-1.067zm0 2.133h-1.066v1.067H16v-1.067zm1.067-1.067H16v1.067h1.067v-1.067zm-2.133 0h-1.067v1.067h1.067v-1.067zm-9.067-19.2H4.801v1.066h1.066V6.122zm0 2.134H4.801v1.066h1.066V8.256zm1.066-1.067H5.866v1.067h1.066V7.189zm-2.133 0H3.733v1.067H4.8V7.189z"/><path fill="var(--color1, #212121)" d="M24.715 14.16a1.774 1.774 0 00-1.179-.703l-.009-.001a1.769 1.769 0 00-1.344.355l.004-.003-1.253.96-1.898 1.417-1.358-.541c2.421-1.086 4.113-3.508 4.113-6.32 0-3.823-3.122-6.934-6.961-6.934S7.869 5.5 7.869 9.324c0 1.386.415 2.674 1.12 3.759l-2.768-.024c-.009 0-.016.005-.023.005a.511.511 0 00-.159.033l.004-.001c-.013.005-.026.007-.038.013-.006.003-.013.003-.019.006l-3.233 1.596-.001.001-1.893.91a.429.429 0 00-.064.036l.001-.001a1.782 1.782 0 00-.594 2.306l-.005-.01c.22.424.592.742 1.043.885l.013.003a1.772 1.772 0 001.388-.133l-.009.005 1.388-.738 2.264-1.169 1.357-.008-5.442 5.415-.001.001-1.339 1.333a1.643 1.643 0 00-.491 1.173v.005a1.668 1.668 0 001.667 1.664h.002a1.67 1.67 0 001.18-.485l1.314-1.309 1.741-1.3.901.897-3.102 3.088a1.645 1.645 0 00-.491 1.174v.004a1.662 1.662 0 001.666 1.664h.003a1.67 1.67 0 001.18-.485l4.488-4.472c.007-.006.016-.009.022-.016l5.166-5.658 3.471.494a.474.474 0 00.262-.032c.017-.006.032-.015.049-.023.019-.01.039-.015.058-.027l3.213-2.133c.012-.008.018-.021.029-.03.013-.01.029-.014.041-.026l1.271-1.191c.348-.326.564-.787.564-1.3 0-.4-.132-.769-.355-1.066l.003.005zM2.13 17.77a.706.706 0 01-.564.05l.005.001a.717.717 0 01-.214-1.258l.002-.001 1.314-.632.316.924.133.389-.992.527zm3.497-1.828l-1.548.8-.255-.746-.184-.537 2.027-1.001-.04 1.484zm15.1-6.62c0 .918-.219 1.785-.599 2.56l-4.181-1.899a1.865 1.865 0 00-.782-1.384l-.006-.004 1.464-4.86c2.377.756 4.104 2.974 4.104 5.588zm-11.789 0c0-3.235 2.644-5.867 5.894-5.867.253 0 .5.022.745.053l-1.432 4.753c-.019 0-.037-.006-.057-.006h-.001a1.872 1.872 0 00-1.872 1.867 1.873 1.873 0 001.872 1.867h.001c.695 0 1.295-.383 1.618-.944l3.863 1.755a5.893 5.893 0 01-4.737 2.389c-3.25 0-5.894-2.632-5.894-5.867zm5.957.8c0 .441-.362.8-.806.8h-.001a.804.804 0 01-.804-.8c0-.441.361-.8.806-.8s.806.359.806.8zM2.464 25.146a.606.606 0 01-.855.001.591.591 0 010-.844l.962-.959.852.848-.959.955zm3.214 3.734a.606.606 0 01-.855.001.591.591 0 010-.844l.963-.959.852.848-.96.955zm3.482-3.469l-.001.001-1.765 1.76-.852-.848 1.765-1.757a.527.527 0 00.09-.136c.007-.014.02-.026.026-.04.016-.041.019-.085.026-.128.003-.025.014-.048.014-.073 0-.035-.013-.07-.02-.105-.006-.032-.006-.064-.019-.096a.536.536 0 00-.092-.138c-.01-.012-.014-.027-.025-.038h-.001l-.001-.002-1.607-1.6c-.017-.017-.039-.024-.058-.038a.563.563 0 00-.084-.057l-.003-.001a.453.453 0 00-.09-.031l-.003-.001a.502.502 0 00-.101-.02h-.002l-.023-.001a.603.603 0 00-.075.005h.003c-.036.005-.069.009-.104.021a.502.502 0 00-.096.046l.002-.001c-.02.011-.043.015-.061.029l-1.774 1.324-.901-.897 2.399-2.386 4.36 4.289-.928.919zm6.819-7.017c-.016-.002-.03.004-.046.003l-.027-.001a.562.562 0 00-.092.008h.003a.484.484 0 00-.187.07l.002-.001a.528.528 0 00-.083.062c-.013.011-.028.016-.04.029l-4.698 5.146-4.328-4.256 2.833-2.818a.535.535 0 00-.378-.911h-.002l-2.219.013.028-1.607 3.104.027a6.928 6.928 0 004.978 2.101h.003c.438 0 .864-.046 1.28-.122.04.032.08.064.129.085l2.41.96.152.759.178.885-3.003-.427zm4.041.178l-.313-1.558 1.446-1.08.946 1.257-2.08 1.381zm3.753-2.831l-.837.785-.931-1.237.831-.637a.735.735 0 01.543-.143.718.718 0 01.621.71.71.71 0 01-.226.521z"/><path fill="var(--color1, #212121)" d="M13.602 18.544l-2.143-2.134a.53.53 0 00-.752 0l-2.143 2.133a.535.535 0 000 .756l2.142 2.134a.53.53 0 00.752 0l2.143-2.134a.532.532 0 000-.756zm-2.519 1.759l-1.387-1.381 1.386-1.381 1.387 1.381-1.387 1.381zm6.081-15.232l-.258 1.036c.071.018 1.738.452 1.738 2.149h1.067c0-2.017-1.666-2.965-2.547-3.184zm2.547 4.251h-1.067v1.066h1.067V9.322z"/></symbol><symbol id="icon-clock" viewBox="0 0 32 32"><path fill="var(--color1, #212121)" d="M31.296 15.301C31.295 6.849 24.441-.002 15.988 0S.685 6.855.687 15.308c.002 6.788 4.422 12.543 10.54 14.545l.108.031a.667.667 0 00.529-.065.636.636 0 00.283-.357l3.865-12.25a1.913 1.913 0 10-.852-3.63l.011-.005-5.106-5.107a.638.638 0 00-.902.902l5.103 5.109a1.873 1.873 0 00.533 2.306l.004.003-3.683 11.673C3.842 25.782.116 17.709 2.796 10.431S13.55-.573 20.828 2.108c7.278 2.681 11.004 10.754 8.323 18.032-1.345 3.581-4.003 6.406-7.374 7.938l-.088.036-.398-1.874a.639.639 0 00-1.049-.343l.001-.001-3.837 3.426a.637.637 0 00.227 1.083l.005.001 4.899 1.563a.637.637 0 00.818-.744l.001.004-.391-1.839c5.528-2.374 9.329-7.772 9.329-14.057v-.034.002zm-15.304-.637a.638.638 0 010 1.276.638.638 0 010-1.276zm2.1 14.864l2.184-1.948.603 2.84-2.787-.892z"/><path fill="var(--color2, #2196f3)" d="M15.354 3.185V4.46a.638.638 0 001.276 0V3.185a.638.638 0 10-1.276 0zM3.876 14.664a.638.638 0 000 1.276h1.275a.638.638 0 000-1.276H3.876zm24.232 1.275a.638.638 0 000-1.276h-1.275a.638.638 0 000 1.276h1.275z"/></symbol><symbol id="icon-diagram" viewBox="0 0 32 32"><path fill="var(--color2, #2196f3)" d="M14.926 14.965h1.066v4.798h-1.066v-4.798zm4.264 2.132h1.066v2.665H19.19v-2.665zm-8.529 1.599h1.066v1.066h-1.066v-1.066zm-3.198-.533h1.066v1.599H7.463v-1.599z"/><path fill="var(--color1, #212121)" d="M1.599 28.291h25.586a1.6 1.6 0 001.599-1.599V24.56a1.6 1.6 0 00-1.599-1.599h-.533V9.667l3.028-2.868a1.608 1.608 0 10-.742-.752l-.004-.01-2.281 2.162v-1.23a1.6 1.6 0 00-1.599-1.599H3.731a1.6 1.6 0 00-1.599 1.599v15.992h-.533A1.6 1.6 0 000 24.56v2.132a1.6 1.6 0 001.599 1.599zM30.384 4.837a.533.533 0 010 1.066.533.533 0 010-1.066zM3.198 6.969c0-.294.239-.533.533-.533h21.323c.294 0 .533.239.533.533v2.239l-1.066 1.013V8.036a.534.534 0 00-.534-.534H4.798a.534.534 0 00-.534.533v13.327c0 .294.239.533.534.533h19.189a.534.534 0 00.534-.533v-9.675l1.066-1.01V22.96H3.198V6.969zm4.798 6.93h-.005a1.6 1.6 0 101.112 2.748l1.853.93a.535.535 0 00.636-.122l3.939-4.432 3.872 2.902a.534.534 0 00.686-.039l3.365-3.188v8.131H5.331V8.568h18.123v2.661l-3.771 3.572-3.904-2.927a.534.534 0 00-.718.071v.001l-3.993 4.493-1.493-.746c.011-.064.017-.128.02-.193a1.6 1.6 0 00-1.599-1.599zm.533 1.599a.533.533 0 01-1.066 0 .533.533 0 011.066 0zm3.198 8.528h5.33v.533a.533.533 0 01-.533.533h-4.265a.533.533 0 01-.533-.533v-.533zm-10.66.534c0-.294.238-.533.533-.533h9.062v.533a1.6 1.6 0 001.599 1.599h4.265a1.6 1.6 0 001.599-1.599v-.533h9.062c.294 0 .533.239.533.533v2.132a.533.533 0 01-.533.533H1.601a.533.533 0 01-.533-.533V24.56z"/></symbol><symbol id="icon-envelope" viewBox="0 0 43 32"><path d="M38.667 0H4C1.795 0 0 1.795 0 4v24c0 2.205 1.795 4 4 4h34.667c2.205 0 4-1.795 4-4V4c0-2.205-1.795-4-4-4zm0 2.667c.181 0 .355.037.512.104L21.334 18.238 3.489 2.771c.151-.065.327-.104.512-.104h34.667zm0 26.666H4A1.333 1.333 0 012.667 28V5.587l17.792 15.421c.233.203.539.327.875.327s.642-.124.876-.328l-.002.001L40 5.587V28c0 .736-.597 1.333-1.333 1.333z"/></symbol><symbol id="icon-facebook" viewBox="0 0 32 32"><path d="M21.328 5.312h2.923V.224A36.483 36.483 0 0020.143 0h-.156.008c-4.213 0-7.099 2.65-7.099 7.52V12H8.25v5.688h4.646V32h5.699V17.69h4.459l.707-5.688h-5.168V8.08c0-1.643.443-2.768 2.734-2.768z"/></symbol><symbol id="icon-instagram" viewBox="0 0 32 32"><path d="M31.968 9.408c-.074-1.701-.349-2.869-.744-3.882a7.84 7.84 0 00-1.847-2.837l-.001-.001A7.906 7.906 0 0026.598.861l-.054-.018C25.523.449 24.362.176 22.661.101 20.949.019 20.405 0 16.059 0c-4.344 0-4.888.019-6.595.094-1.701.074-2.869.349-3.88.742a7.847 7.847 0 00-2.839 1.85l-.001.001A7.9 7.9 0 00.919 5.465l-.018.054C.506 6.538.232 7.7.157 9.401c-.082 1.712-.101 2.256-.101 6.602 0 4.344.019 4.888.094 6.595.075 1.701.35 2.869.744 3.882a7.915 7.915 0 001.849 2.837l.001.001c.8.813 1.77 1.443 2.832 1.843 1.019.395 2.182.67 3.882.744 1.707.075 2.251.094 6.595.094 4.346 0 4.89-.019 6.595-.094 1.701-.074 2.869-.349 3.882-.742a8.237 8.237 0 004.664-4.628l.019-.055c.394-1.019.669-2.182.744-3.882.075-1.707.093-2.251.093-6.595s-.006-4.888-.08-6.595zm-2.88 13.066c-.07 1.563-.333 2.406-.552 2.97a5.336 5.336 0 01-3.001 3.024l-.036.013c-.563.219-1.413.482-2.97.55-1.688.075-2.194.094-6.464.094-4.269 0-4.782-.019-6.464-.094-1.563-.069-2.406-.331-2.97-.55a4.953 4.953 0 01-1.836-1.192l-.001-.001a4.978 4.978 0 01-1.184-1.803l-.011-.034c-.218-.563-.48-1.413-.549-2.97-.075-1.688-.094-2.195-.094-6.464 0-4.27.019-4.784.094-6.464.069-1.563.331-2.406.549-2.97a4.897 4.897 0 011.198-1.837l.002-.002a4.972 4.972 0 011.806-1.182l.034-.011c.56-.219 1.411-.48 2.968-.55 1.688-.074 2.194-.093 6.464-.093 4.275 0 4.782.019 6.464.093 1.562.069 2.406.331 2.97.55a4.91 4.91 0 011.837 1.194c.531.52.938 1.144 1.195 1.84.218.56.48 1.411.549 2.968.075 1.688.094 2.194.094 6.464 0 4.269-.019 4.768-.094 6.458z"/><path d="M16.059 7.782a8.223 8.223 0 00-8.219 8.221v.002a8.222 8.222 0 1016.444 0 8.222 8.222 0 00-8.222-8.222h-.002zm0 13.552a5.333 5.333 0 01.001-10.666h.001a5.334 5.334 0 110 10.668zM26.525 7.458a1.92 1.92 0 01-3.84 0 1.92 1.92 0 013.84 0z"/></symbol><symbol id="icon-linkedin" viewBox="0 0 32 32"><path d="M27.423 22.857h.006v-8.384c0-4.101-.883-7.259-5.678-7.259-2.304 0-3.851 1.264-4.482 2.464h-.066V7.597h-4.546v15.259h4.734v-7.555c0-1.99.377-3.914 2.841-3.914 2.427 0 2.463 2.271 2.463 4.041v7.43h4.729zM4.949 7.597h4.739v15.261H4.949V7.597zM7.317 0a2.745 2.745 0 00-2.745 2.745c0 1.514 1.23 2.77 2.745 2.77 1.514 0 2.744-1.255 2.744-2.77S8.832.001 7.317 0z"/></symbol><symbol id="icon-logo-1" viewBox="0 0 29 32"><path d="M3.84.493l4.677 4.378h13.046v12.215l4.677 4.379V.492H3.84z"/><path d="M0 4.687V25.06h21.76v-8.098L8.655 4.691 0 4.687zM17.615 22.08H3.443V8.378h1.002v12.774h13.17v.928zM6.266 28.861l.524-1.078h.438l-.764 1.437v.837h-.397v-.837l-.764-1.438h.439l.524 1.078zm2.247.667h-.881l-.184.529h-.411l.859-2.275h.355l.861 2.275h-.413l-.186-.529zm-.77-.318h.659l-.33-.944-.33.944zm2.328.234c0-.105.029-.202.086-.289s.17-.193.339-.314a1.45 1.45 0 01-.182-.276l-.004-.008a.568.568 0 01-.052-.226c0-.178.054-.319.163-.422a.604.604 0 01.437-.156.57.57 0 01.406.147c.106.096.16.217.16.36v.003a.497.497 0 01-.074.262l.001-.002a.858.858 0 01-.233.236l-.003.002-.155.112.44.518a.91.91 0 00.095-.417h.33c0 .28-.065.51-.196.689l.334.395h-.44l-.128-.152a.93.93 0 01-.558.183h-.025.001c-.225 0-.405-.06-.54-.178a.597.597 0 01-.202-.447v-.021.001zm.753.342a.58.58 0 00.359-.128l-.497-.586-.049.034c-.125.095-.188.204-.188.325 0 .106.034.191.102.256a.372.372 0 00.253.099h.02-.001zm-.21-1.465c0 .087.054.197.161.33l.173-.119.049-.039a.283.283 0 00.097-.212v-.008-.003a.199.199 0 00-.067-.149.233.233 0 00-.162-.064h-.019a.224.224 0 00-.167.075.276.276 0 00-.066.179v.011zm4.134.996c-.023.243-.113.433-.269.569-.156.135-.364.203-.623.203h-.018a.899.899 0 01-.466-.13l.004.002a.866.866 0 01-.317-.362l-.002-.005a1.302 1.302 0 01-.117-.544v-.22c0-.214.038-.403.114-.567a.882.882 0 01.326-.378.913.913 0 01.494-.133c.251 0 .453.068.606.205s.243.329.268.578h-.394c-.019-.164-.067-.282-.144-.353-.076-.073-.188-.109-.336-.109a.464.464 0 00-.397.189c-.092.125-.138.308-.141.551v.202c0 .246.044.433.132.562s.218.194.387.194c.155 0 .272-.035.35-.104s.128-.186.148-.349h.394zm2.17-.337c0 .223-.038.419-.115.588-.077.168-.188.297-.332.387s-.307.134-.494.134a.92.92 0 01-.493-.134.897.897 0 01-.332-.38l-.002-.006a1.335 1.335 0 01-.119-.555v-.022.001-.128c0-.223.038-.419.117-.588s.19-.3.333-.389c.144-.09.308-.136.493-.136s.35.045.493.134a.867.867 0 01.333.384c.078.166.118.361.118.583v.127zm-.396-.119c0-.252-.048-.445-.143-.579a.466.466 0 00-.384-.203h-.022.001-.016c-.159 0-.3.08-.384.201l-.001.002c-.096.133-.145.322-.147.567v.131c0 .25.049.443.146.58s.233.205.406.205c.175 0 .31-.067.403-.2.095-.134.142-.328.142-.584v-.119z"/></symbol><symbol id="icon-logo-2" viewBox="0 0 24 32"><path d="M10.25 2.224h.083c.153 0 .318.015.481.028.72.051 1.435.157 2.139.319V.862a12.868 12.868 0 00-2.207-.348 16.816 16.816 0 00-.872-.042h-.279a18.12 18.12 0 00-4.429.565A18 18 0 00.381 2.974l.085-.046v16.957a18.719 18.719 0 014.347-1.698l.133-.029a18.973 18.973 0 013.708-.568l.051-.002h.051c.213-.011.424-.017.643-.018v-1.738a20.983 20.983 0 00-5.033.675l.146-.032a23.43 23.43 0 00-1.698.498l-.611.205V3.957l.261-.125c1.856-.891 4.02-1.468 6.304-1.6l.046-.002.027-.001.028.001h-.001c.217-.012.472-.018.727-.018h.275c.127.003.254.006.38.014z"/><path d="M14.557 4.014h-.016c-.897 0-1.777-.075-2.633-.218l.093.013c-.272-.045-.539-.1-.799-.159v16.763c1.099.269 2.228.401 3.36.392a18.33 18.33 0 004.557-.592l-.127.028a18.078 18.078 0 004.787-1.936l-.086.046V1.695a18.74 18.74 0 01-4.344 1.699l-.134.029a19.194 19.194 0 01-4.657.591zm6.777.29l.611-.203v13.226l-.261.124a16.2 16.2 0 01-3.006 1.085l-.117.025a16.002 16.002 0 01-3.993.512h-.004c-.403 0-.803-.017-1.191-.05l-.418-.036V5.385l.487.031c.354.023.721.034 1.119.034a20.967 20.967 0 005.221-.676l-.145.032a24.866 24.866 0 001.889-.559l-.191.056zM1.653 25.678a.9.9 0 00-.682-.271h.002-.014c-.136 0-.266.027-.385.075l.007-.002a.878.878 0 00-.5.496l-.002.006a.973.973 0 00-.07.376v2.265c-.006.16.025.319.09.465a.81.81 0 00.543.465c.112.03.227.047.342.047a.973.973 0 00.674-.287.984.984 0 00.198-.297l.002-.006a.918.918 0 00.073-.362v-.254h-.599V28.61a.533.533 0 01-.036.192l.001-.004a.368.368 0 01-.087.127.417.417 0 01-.25.086.307.307 0 01-.28-.12l-.001-.001a.53.53 0 01-.08-.281l.001-.025v.001-2.112-.021a.71.71 0 01.076-.321l-.002.004a.305.305 0 01.294-.137H.967h.011c.104 0 .197.05.256.127l.001.001c.062.08.099.181.099.292v.013-.001.196h.593v-.231-.01c0-.139-.027-.272-.076-.393l.003.007a.927.927 0 00-.201-.319zm3.557-.026a1.057 1.057 0 00-1.038-.186.931.931 0 00-.546.497l-.002.006c-.06.139-.091.289-.088.44v2.172c-.004.153.026.305.087.445a.875.875 0 00.232.304.923.923 0 00.316.191 1.04 1.04 0 001.039-.192l-.001.001a.926.926 0 00.226-.304c.062-.14.091-.292.087-.445v-2.173-.02c0-.151-.032-.295-.09-.425l.003.007a.986.986 0 00-.225-.317h-.001zm-.28 2.929l.002.034c0 .11-.046.21-.12.28a.44.44 0 01-.565-.001l.001.001a.389.389 0 01-.12-.281l.001-.034v.001-2.174l-.001-.034c0-.11.046-.21.12-.28a.44.44 0 01.565 0l-.001-.001c.074.071.12.171.12.281l-.001.034v-.001 2.174zm4.952.97v-4.114h-.575l-.757 2.178h-.01l-.763-2.177h-.569v4.114h.594v-2.503h.011l.581 1.769h.296l.587-1.769h.01v2.503h.594zm3.376-3.824a.82.82 0 00-.33-.223l-.006-.002a1.293 1.293 0 00-.408-.064h-.024.001-.883v4.114h.592v-1.606h.306c.185.008.369-.03.535-.113a.852.852 0 00.325-.314.979.979 0 00.136-.359c.023-.155.034-.311.032-.467l.001-.068c0-.184-.021-.364-.062-.536l.003.016a.872.872 0 00-.219-.378zm-.306 1.254a.524.524 0 01-.056.217l.001-.003a.329.329 0 01-.151.144l-.002.001a.604.604 0 01-.248.052l-.033-.001h.002-.271v-1.399h.306l.028-.001c.087 0 .17.019.243.054l-.004-.001a.337.337 0 01.138.149l.001.002c.033.072.05.15.052.229v.273c0 .095.006.194 0 .283h-.006zm3.113-1.543h-.486l-.917 4.113h.593l.174-.884h.808l.174.883h.592l-.939-4.113zm-.547 2.669l.292-1.491h.011l.29 1.491h-.592zm4.376-.191h-.011l-.895-2.478h-.569v4.114h.593v-2.474h.012l.906 2.473h.557v-4.114h-.592v2.479zm3.622-2.478l-.477 1.635h-.012l-.477-1.636h-.627l.814 2.375v1.739h.592v-1.739l.814-2.375h-.628zM0 30.713h.286v.793H.48v-.793h.284v-.162H.001v.163zm2.401-.162l-.374.955h.206l.08-.217h.385l.083.217h.211l-.385-.955h-.206zm-.03.577l.131-.354.131.354H2.37zm2.404.026h.223v.123a.37.37 0 01-.229.081h-.014a.247.247 0 01-.191-.091.39.39 0 01-.072-.227l.001-.023v.001c0-.213.093-.319.278-.319l.02-.001c.095 0 .175.064.198.152v.001l.191-.036c-.041-.187-.177-.281-.409-.281h-.013a.486.486 0 00-.325.124.464.464 0 00-.139.369v-.002.022c0 .129.047.247.125.337l-.001-.001a.467.467 0 00.335.141l.033-.001h-.001.017a.585.585 0 00.393-.152v-.377h-.418v.161zm2.424-.603h-.196v.955h.676v-.162h-.481v-.792zm2.05 0h-.196v.955h.196v-.955zm2.004.638l-.396-.638h-.189v.955h.181v-.624l.388.624h.194v-.955h-.179v.638zm1.811-.104h.481v-.162h-.481v-.209h.517v-.162h-.713v.955h.733v-.162h-.537v-.258zm4.392-.158h-.38v-.377h-.194v.955h.194v-.417h.38v.417h.194v-.955h-.194v.377zm1.823.158h.483v-.162h-.483v-.209h.519v-.162h-.712v.955h.732v-.162h-.537v-.258zm2.471 0c.168-.026.254-.115.254-.266a.227.227 0 00-.094-.213h-.001a.546.546 0 00-.245-.057l-.039.001h.002-.409v.955h.194v-.399h.038l.016-.001c.038 0 .074.008.106.022l-.002-.001a.195.195 0 01.068.069v.001l.211.304h.232l-.118-.187a.68.68 0 00-.211-.228l-.002-.002zm-.196-.133h-.143v-.24h.153a.486.486 0 01.2.024l-.004-.001a.126.126 0 01-.009.195.55.55 0 01-.162.024l-.037-.001h.002zm2.06.133h.481v-.162h-.481v-.209h.519v-.162h-.714v.955h.733v-.162h-.537v-.258z"/></symbol><symbol id="icon-logo-3" viewBox="0 0 31 32"><path d="M4.722 31.3c.023 0 .044.01.06.025l.153.159a1.26 1.26 0 01-.431.301 1.568 1.568 0 01-.61.108h-.03c-.196 0-.383-.037-.555-.105l.01.004a1.252 1.252 0 01-.709-.716l-.003-.009a1.56 1.56 0 01-.097-.565 1.443 1.443 0 01.104-.566 1.305 1.305 0 01.757-.727 1.65 1.65 0 01.574-.101h.018-.001.034c.185 0 .362.034.526.096l-.01-.003c.151.062.29.148.412.255l-.129.17a.11.11 0 01-.032.029.077.077 0 01-.045.014h-.006a.116.116 0 01-.056-.018l-.068-.045-.096-.058a1.023 1.023 0 00-.296-.1l-.006-.001a1.183 1.183 0 00-.214-.019h-.014.001-.014c-.148 0-.289.028-.419.079l.008-.003a.97.97 0 00-.334.213.987.987 0 00-.214.333l-.002.007c-.05.129-.079.277-.079.433v.015-.001c-.002.155.025.309.079.455a.995.995 0 00.212.337.858.858 0 00.318.21c.125.048.259.073.394.071.078.002.156-.004.234-.014a.878.878 0 00.505-.233.115.115 0 01.072-.03zm4.422-.797c.002.191-.033.381-.103.561-.067.17-.165.316-.288.435a1.306 1.306 0 01-.444.283l-.009.003a1.718 1.718 0 01-1.176-.004l.012.004c-.34-.13-.605-.39-.737-.718l-.003-.009a1.581 1.581 0 01.004-1.135l-.004.011a1.33 1.33 0 01.29-.442c.129-.12.282-.214.45-.275a1.696 1.696 0 011.176.004l-.012-.004a1.274 1.274 0 01.741.722c.066.162.104.35.104.547v.018-.001zm-.402 0v-.024c0-.153-.027-.3-.076-.436l.003.009a.941.941 0 00-.205-.338.9.9 0 00-.318-.21l-.006-.002a1.239 1.239 0 00-.855.003l.009-.003a.901.901 0 00-.528.544l-.002.006a1.412 1.412 0 00.003.912l-.003-.01c.088.254.28.452.524.546l.006.002c.273.096.573.096.846 0a.896.896 0 00.324-.211.947.947 0 00.205-.337c.052-.146.076-.298.073-.451zm3.418.473l.041.101c.015-.036.028-.068.044-.101a.918.918 0 01.05-.099l.978-1.676c.019-.028.037-.047.056-.052a.236.236 0 01.067-.009h.014-.001.289v2.725h-.342v-2.089l-.001-.047.001-.049v.002l-.984 1.699a.149.149 0 01-.057.062h-.001a.162.162 0 01-.082.022h-.057c-.03 0-.06-.007-.084-.022s-.044-.036-.057-.062v-.001l-1.013-1.709v2.188h-.331v-2.72h.303c.024 0 .047.003.069.01h-.002a.114.114 0 01.053.051v.001l.999 1.677c.018.028.035.06.048.093l.001.004zm3.681-.135v1.021h-.383v-2.721h.854c.161-.003.322.017.476.06a.923.923 0 01.337.169.7.7 0 01.19.263l.002.005c.045.11.067.228.066.348a.822.822 0 01-.071.348.737.737 0 01-.206.272.947.947 0 01-.339.18 1.497 1.497 0 01-.461.063l-.463-.007zm0-.292h.464c.1.001.201-.013.296-.042a.64.64 0 00.215-.118l-.001.001a.482.482 0 00.129-.177l.001-.003a.555.555 0 00.046-.223v-.007l.001-.028a.5.5 0 00-.041-.197l.001.003a.536.536 0 00-.133-.186h-.001a.764.764 0 00-.455-.148l-.062.002h.003-.464v1.122zm5.146 1.316h-.308a.134.134 0 01-.079-.026.173.173 0 01-.049-.062v-.001l-.26-.659h-1.307l-.27.659a.159.159 0 01-.047.061.137.137 0 01-.082.028h-.306l1.148-2.726h.398l1.164 2.726zm-1.895-1.012h1.079l-.455-1.109c-.03-.07-.06-.155-.083-.243l-.003-.013-.044.143a1.149 1.149 0 01-.045.124l.003-.009-.452 1.107zm3.548-1.701a.173.173 0 01.058.049l1.674 2.054V29.14h.342v2.725h-.196a.164.164 0 01-.074-.017h.001a.212.212 0 01-.061-.05l-1.674-2.052a.737.737 0 010 .094v2.025h-.342v-2.724h.203a.155.155 0 01.068.012zm4.897 1.629v1.082h-.383v-1.082l-1.058-1.641H26.446c.028 0 .053.009.075.024a.23.23 0 01.052.06l.001.001.662 1.059a1.347 1.347 0 01.116.242l.05-.117a.879.879 0 01.066-.125l.653-1.066a.279.279 0 01.05-.058.12.12 0 01.076-.027h.352l-1.06 1.648zm-15.566-6.215c.167.02.335.037.506.051 2.582-1.089 4.767-2.871 6.281-5.123s2.29-4.875 2.231-7.541l-2.846-2.682c.189.884.297 1.9.297 2.941 0 1.994-.396 3.895-1.114 5.629l.036-.098c-1.09 2.701-2.957 5.063-5.39 6.823z"/><path d="M10.954 24.441l.077.015c2.6-1.753 4.583-4.2 5.692-7.026.627-1.546.991-3.339.991-5.217 0-1.282-.17-2.525-.487-3.707l.023.1-4.054-3.82c1.639 3.14 2.3 6.654 1.904 10.134s-1.834 6.782-4.144 9.522zm13.75-9.339c-.688 2.928-2.361 5.57-4.77 7.531a14.994 14.994 0 01-2.19 1.495l-.076.039a13.605 13.605 0 005.286-2.822l-.017.015a12.636 12.636 0 003.381-4.628l.031-.082-1.645-1.548z"/><path d="M24.06 14.672l-2.341-2.207c-.045 2.515-.804 4.973-2.198 7.118s-3.373 3.9-5.729 5.08h.012c.525 0 1.049-.03 1.572-.088 2.203-.848 4.148-2.195 5.663-3.923s2.553-3.783 3.021-5.981zM11.294 3.175L8.501.541c-2.497.908-4.644 2.506-6.16 4.584C.824 7.204.008 9.665.001 12.187c.01 2.786 1.005 5.491 2.829 7.684s4.372 3.751 7.242 4.427c2.562-2.941 4.061-6.574 4.281-10.373s-.851-7.564-3.059-10.75zm19.218 11.091c-.01-3.307-1.409-6.474-3.89-8.813s-5.843-3.655-9.352-3.665h-.021c-1.694 0-3.316.305-4.816.862l.096-.031 17.099 16.112c.559-1.32.884-2.854.884-4.465v-.001z"/></symbol><symbol id="icon-logo-4" viewBox="0 0 60 32"><path d="M9.229 9.983h-.002c-1.683 0-3.048 1.315-3.048 2.938v.002c0 1.622 1.365 2.938 3.048 2.938h.002c1.683 0 3.048-1.315 3.048-2.938v-.002c0-1.622-1.365-2.938-3.048-2.938zm22.501-.939c-.005-2.254-.936-4.414-2.59-6.008C27.488 1.442 25.246.544 22.908.539c-2.339.004-4.581.901-6.236 2.495s-2.585 3.754-2.59 6.009v12.428s17.645-1.894 17.647-12.426v-.002zM0 25.551a5.828 5.828 0 001.802 4.18 6.254 6.254 0 004.336 1.738h.002c1.682 0 3.21-.662 4.337-1.74l-.002.002a5.822 5.822 0 001.803-4.179v-8.647S0 18.224 0 25.55zM6.14 27.1a1.66 1.66 0 01-.894-.26 1.57 1.57 0 01-.588-.686l-.004-.01a1.51 1.51 0 01.348-1.688l.001-.001c.225-.217.511-.365.823-.424s.635-.029.929.089c.294.117.545.316.722.571a1.502 1.502 0 01.146 1.465l.004-.01a1.557 1.557 0 01-.347.504 1.628 1.628 0 01-1.137.456h-.002V27.1zm12.532-.926h-1.256v1.297h-.655v-3.173h2.067v.53h-1.412v.819h1.255v.528zm3.143-.218c0 .313-.056.586-.166.822s-.269.417-.476.545a1.29 1.29 0 01-.682.192h-.025.001c-.263 0-.498-.063-.704-.19a1.277 1.277 0 01-.477-.533l-.003-.008a1.836 1.836 0 01-.172-.783v-.029.001-.156c0-.313.056-.588.168-.825a1.26 1.26 0 01.477-.547c.206-.128.442-.192.707-.192s.499.064.704.192c.206.127.365.309.477.547s.17.511.17.822v.141zm-.662-.144c0-.333-.06-.586-.179-.759a.585.585 0 00-.485-.26l-.027.001h.001l-.025-.001c-.2 0-.377.101-.482.255l-.001.002c-.119.17-.18.42-.182.75v.155c0 .324.06.576.179.755s.291.268.515.268l.025.001c.2 0 .376-.102.479-.256l.001-.002c.118-.173.177-.424.179-.754v-.155zm2.783.826v-.018a.329.329 0 00-.131-.264l-.001-.001c-.087-.067-.244-.137-.47-.21a3.363 3.363 0 01-.558-.227l.019.009c-.36-.195-.541-.457-.541-.787 0-.171.048-.324.144-.458s.236-.24.417-.316c.182-.075.385-.113.61-.113s.429.042.606.124a.947.947 0 01.412.347c.099.15.149.32.149.51h-.655c0-.145-.045-.258-.137-.338s-.22-.122-.386-.122c-.16 0-.284.034-.372.103a.318.318 0 00-.134.259v.007c0 .104.052.19.155.26.105.07.258.135.461.196.372.112.643.251.813.417s.255.372.255.618c0 .275-.104.491-.312.647s-.487.234-.839.234c-.244 0-.467-.045-.667-.133a1.081 1.081 0 01-.458-.365l-.002-.003a.934.934 0 01-.157-.522v-.02.001h.656c0 .351.21.526.628.526a.616.616 0 00.365-.094.312.312 0 00.131-.253v-.014.001zm3.49-1.811h-.972v2.644H25.8v-2.644h-.959v-.53h2.586v.53zm2.286 1.269h-1.256v.85h1.474v.525h-2.128v-3.173h2.124v.53h-1.47v.756h1.256v.513zm1.777.213h-.521v1.162h-.655v-3.173h1.18c.374 0 .664.083.868.251s.305.403.305.708a.992.992 0 01-.141.543.955.955 0 01-.419.341l-.006.002.687 1.297v.03h-.703l-.595-1.162zm-.521-.53h.528c.164 0 .291-.042.381-.124a.45.45 0 00.136-.323l-.001-.025v.001a.478.478 0 00-.129-.354c-.084-.086-.214-.128-.39-.128h-.526v.953zm3.963.573v1.119h-.655v-3.173h1.239c.238 0 .447.043.628.13s.321.212.418.373c.097.16.146.342.146.548 0 .311-.106.557-.32.737-.212.179-.506.268-.883.268h-.573zm0-.529h.584c.173 0 .304-.04.394-.122.092-.081.138-.197.138-.348l.001-.023a.522.522 0 00-.139-.355.51.51 0 00-.38-.149h-.599v.997zm4.138.273h-1.255v.85h1.474v.525H37.16v-3.173h2.124v.53h-1.469v.756h1.255v.513zm3.035-1.269h-.972v2.644h-.655v-2.644h-.959v-.53h2.585v.53zm2.284 1.269h-1.255v.85h1.474v.525h-2.128v-3.173h2.124v.53h-1.47v.756h1.256v.513zm1.778.213h-.521v1.162h-.654v-3.173h1.18c.375 0 .665.083.868.251s.305.403.305.708a.983.983 0 01-.141.543.962.962 0 01-.419.341l-.006.002.686 1.297v.03h-.702l-.595-1.162zm-.521-.53h.528c.164 0 .29-.042.381-.124a.448.448 0 00.135-.322l-.001-.026v.001c0-.15-.042-.268-.128-.354s-.214-.128-.391-.128h-.525v.953zm3.843.859v-.018a.329.329 0 00-.131-.264l-.001-.001c-.087-.067-.244-.137-.47-.21a3.363 3.363 0 01-.558-.227l.019.009c-.36-.195-.541-.457-.541-.787 0-.171.048-.324.144-.458s.236-.24.417-.316c.181-.075.385-.113.61-.113s.429.042.606.124a.953.953 0 01.412.347c.099.15.148.32.148.51h-.654c0-.145-.045-.258-.137-.338s-.22-.122-.386-.122c-.16 0-.284.034-.373.103a.316.316 0 00-.133.258v.008c0 .104.052.19.155.26.105.07.258.135.46.196.372.112.644.251.813.417s.255.372.255.618c0 .275-.104.491-.312.647s-.487.234-.839.234c-.244 0-.467-.045-.667-.133a1.087 1.087 0 01-.458-.365l-.002-.003a.934.934 0 01-.157-.522v-.02.001h.656c0 .351.21.526.628.526a.616.616 0 00.365-.094.311.311 0 00.13-.253v-.014.001z"/></symbol><symbol id="icon-logo-5" viewBox="0 0 39 32"><path d="M2.992 26.395c.153.189.235.425.231.667l.001.053c0 .314-.138.596-.357.788l-.001.001a1.56 1.56 0 01-1.039.307H.001v-4.223H1.79a1.522 1.522 0 01.996.284l-.005-.003a.967.967 0 01.348.743l-.001.05v-.002a.967.967 0 01-.209.648l.002-.002a.973.973 0 01-.538.329l-.006.001c.242.044.461.172.617.361zM.85 25.758h.763a.73.73 0 00.487-.14.5.5 0 00.164-.415v.002l.001-.036a.516.516 0 00-.163-.376.735.735 0 00-.503-.142h.003-.751v1.108zm1.325 1.62a.522.522 0 00.182-.397l-.001-.034v.002l.001-.031a.529.529 0 00-.185-.402l-.001-.001a.787.787 0 00-.522-.153h.002H.85v1.162h.812a.802.802 0 00.513-.147zm4.474.833l-.995-1.651H5.28v1.651h-.856v-4.223h1.62a1.603 1.603 0 011.132.361l-.003-.002c.239.242.387.575.387.943 0 .303-.1.582-.269.807l.002-.003c-.2.228-.473.38-.773.429l1.06 1.688h-.931zm-1.37-2.226h.7c.487 0 .729-.213.729-.639l.001-.036a.623.623 0 00-.18-.438.76.76 0 00-.554-.171h.003-.709l.009 1.285zm6.048 1.376H9.622l-.301.85h-.897l1.567-4.176h.97l1.56 4.176h-.897l-.295-.85zm-.228-.64l-.623-1.782-.623 1.782H11.1zm6.085 1.49h-.851l-1.905-2.872v2.872h-.847v-4.223h.847l1.905 2.889v-2.889h.85v4.223zm4.849-1.011c-.179.32-.442.575-.759.74l-.01.005a2.48 2.48 0 01-1.129.268l-.069-.001h.003-1.513v-4.223h1.513l.066-.001c.411 0 .799.096 1.143.268l-.015-.007c.325.163.593.42.769.737.168.322.266.703.266 1.108s-.098.785-.272 1.121l.006-.014zm-.972-.101c.233-.269.375-.622.375-1.008s-.142-.739-.377-1.01l.002.002a1.477 1.477 0 00-1.069-.359h.004-.59v2.733h.591a1.481 1.481 0 001.066-.36l-.002.002zM11.859.498S22.827 4.61 22.595 10.56v10.064s-10.96-4.113-10.731-10.063L11.859.498zm20.506 17.769a14.924 14.924 0 016.903-2.543l.066-.006v-3.15c-2.926 1.138-5.317 3.119-6.934 5.643l-.034.057z"/><path d="M31.12 19.216c1.723-3.385 4.604-5.973 8.11-7.276l.103-.033V2.83s-15.62 5.857-15.289 14.331v14.328s.696-.262 1.791-.753c0-.458 0-.92.049-1.384.348-4.082 2.3-7.65 5.214-10.115l.022-.018z"/><path d="M29.635 24.539c.082-.993.265-1.977.547-2.933a13.713 13.713 0 00-3.263 7.778l-.004.051c-.023.272-.035.545-.041.825a42.939 42.939 0 003.222-1.689l-.218.117c-.187-.88-.294-1.89-.294-2.926 0-.431.018-.857.055-1.279l-.004.055zm.621.052a14.128 14.128 0 00.208 3.845l-.014-.088c4.267-2.535 9.063-6.453 8.878-11.188v-.413a14.04 14.04 0 00-8.126 3.772l.006-.006a13.656 13.656 0 00-.948 4.027l-.003.05z"/></symbol><symbol id="icon-logo-6" viewBox="0 0 62 32"><path d="M31.123 15.211a2.205 2.205 0 01-.396-1.422v.007-2.052c0-.629.132-1.107.394-1.434s.715-.49 1.356-.488c.602 0 1.03.139 1.282.417.275.355.41.79.379 1.227v.483h-1.077v-.489a2.83 2.83 0 00-.031-.478.469.469 0 00-.153-.283.583.583 0 00-.392-.11h.002a.616.616 0 00-.412.118l.002-.001a.56.56 0 00-.178.31l-.001.004a2.538 2.538 0 00-.042.508v2.49a1.394 1.394 0 00.142.707l-.004-.008a.51.51 0 00.216.169.548.548 0 00.28.039h-.003a.552.552 0 00.382-.113l-.001.001a.511.511 0 00.16-.3v-.003c.026-.166.037-.333.034-.499v-.505h1.077v.461a1.978 1.978 0 01-.377 1.297l.004-.006c-.247.305-.669.457-1.288.457s-1.088-.163-1.354-.501zm4.485.021c-.272-.32-.408-.785-.408-1.401v-2.158c0-.609.136-1.071.408-1.384s.726-.468 1.364-.467c.633 0 1.085.156 1.358.467.271.313.41.774.41 1.384v2.158c0 .61-.139 1.078-.415 1.398-.277.322-.727.483-1.354.483s-1.09-.163-1.364-.48zm1.865-.518c.097-.2.142-.419.129-.639v-2.643a1.248 1.248 0 00-.131-.633l.003.007a.516.516 0 00-.216-.171l-.003-.001a.551.551 0 00-.287-.037h.003a.558.558 0 00-.288.038l.004-.001a.532.532 0 00-.22.17l-.001.001c-.098.195-.143.41-.129.626v2.655c-.014.22.031.439.129.639.062.066.138.12.222.156l.004.002a.71.71 0 00.558-.002l-.005.002a.653.653 0 00.226-.158v-.013zm2.562-4.83h1.16l.872 3.983.892-3.983h1.128l.113 5.749h-.833l-.089-3.995-.861 3.995h-.669l-.892-4.01-.083 4.01h-.843l.104-5.749zm5.465 0h1.806c1.04 0 1.56.544 1.56 1.633 0 1.042-.547 1.562-1.643 1.561h-.614v2.555h-1.115l.007-5.749zm1.543 2.457a.82.82 0 00.613-.182.988.988 0 00.16-.649l.001-.067c0-.162-.02-.318-.057-.468l.003.013a.417.417 0 00-.083-.159l.001.001a.48.48 0 00-.139-.115l-.002-.001a1.056 1.056 0 00-.438-.093l-.062.002h.003-.433v1.718h.433zm3.431-2.457h1.197l1.229 5.749h-1.039l-.243-1.326H50.55l-.25 1.326h-1.055l1.229-5.749zm1.023 3.757l-.417-2.413-.417 2.413h.835zm2.395-3.757h.779l1.494 3.279V9.884h.925v5.749h-.742l-1.503-3.423v3.423h-.957l.002-5.748zm5.366 3.557l-1.242-3.549h1.046l.758 2.28.711-2.28h1.023l-1.226 3.549v2.191h-1.071v-2.191zm-26.413 4.705v.301h-.91v2.336h-.381v-2.336h-.914v-.301h2.205zm2.852 2.637h-.302a.124.124 0 01-.075-.026.134.134 0 01-.048-.06v-.001l-.263-.626h-1.262l-.264.626a.177.177 0 01-.04.071.126.126 0 01-.076.025h-.301l1.115-2.637h.387l1.128 2.626zm-1.847-.979h1.053l-.446-1.073a1.93 1.93 0 01-.08-.234l-.003-.014-.042.14-.04.111-.442 1.071zm3.769.72c.07.003.139.003.209 0a1.34 1.34 0 00.348-.083l-.009.003c.049-.018.099-.042.15-.065v-.593h-.45a.084.084 0 01-.056-.021.057.057 0 01-.022-.046V19.514h.865v1.01a1.606 1.606 0 01-.459.212l-.012.003a1.643 1.643 0 01-.269.053l-.009.001a2.896 2.896 0 01-.321.017h-.019c-.197 0-.385-.036-.559-.102l.011.004a1.37 1.37 0 01-.446-.276l.001.001a1.299 1.299 0 01-.285-.409l-.003-.008a1.394 1.394 0 01-.103-.53v-.019-.015c0-.193.037-.376.104-.545l-.004.01a1.18 1.18 0 01.287-.417c.127-.118.279-.212.446-.273.191-.067.394-.101.598-.098.104 0 .207.007.31.022a1.334 1.334 0 01.684.309l-.108.163a.103.103 0 01-.036.036.098.098 0 01-.051.014.137.137 0 01-.07-.021h.001a1.281 1.281 0 01-.114-.066l.005.003a1 1 0 00-.143-.069l-.007-.002a1.32 1.32 0 00-.197-.057l-.009-.001a1.507 1.507 0 00-.269-.023h-.014.001-.013c-.15 0-.293.027-.426.076l.008-.003a.92.92 0 00-.328.209.933.933 0 00-.205.321l-.002.006c-.1.286-.1.594 0 .879a.952.952 0 00.549.542c.142.045.292.063.442.052zm3.553-.043h1.217v.301h-1.59v-2.637h.381l-.009 2.335zm2.484.302h-.381v-2.637h.381v2.637zm1.418-2.624a.191.191 0 01.058.048l1.63 1.987-.002-.047.002-.049v.002-1.965h.332v2.647h-.191l-.013.001a.171.171 0 01-.071-.016h.001a.222.222 0 01-.06-.05l-1.628-1.985v2.049h-.319v-2.637h.198c.022 0 .043.005.063.013zm4.827-.013v.29H48.55v.87h1.095v.28H48.55v.899h1.351v.291h-1.743v-2.63h1.743zM9.95 1.864l16.929 4.501v15.77L9.951 17.636V1.863zM8.865.52v17.883l19.098 5.078V5.601L8.865.519z"/><path d="M19.1 31.783L0 26.7V8.819L19.1 13.9v17.883z"/><path d="M9.181 1.662l16.707 4.444-7.105 6.655-16.71-4.446L9.18 1.662zM8.865.52L0 8.819 19.1 13.9l8.863-8.299L8.865.52zm11.31 30.257l7.788-7.293-7.788-2.073v9.366z"/></symbol><symbol id="icon-smartphone" viewBox="0 0 20 32"><path d="M17 0H3C1.346 0 0 1.346 0 3v26c0 1.654 1.346 3 3 3h14c1.654 0 3-1.346 3-3V3c0-1.654-1.346-3-3-3zM3 2h14a1 1 0 011 1v21H2V3a1 1 0 011-1zm14 28H3a1 1 0 01-1-1v-3h16v3a1 1 0 01-1 1z"/><path d="M4.708 27.478a.889.889 0 01.001 1.319l-.001.001a1.048 1.048 0 01-1.417 0l.001.001a.889.889 0 01-.001-1.319l.001-.001a1.048 1.048 0 011.417 0l-.001-.001z"/></symbol><symbol id="icon-twitter" viewBox="0 0 32 32"><path d="M32 6.078c-1.1.493-2.376.857-3.713 1.028l-.068.007a6.556 6.556 0 002.873-3.579l.013-.046a12.88 12.88 0 01-4.076 1.573l-.084.014A6.558 6.558 0 0015.6 9.557v.004c0 .52.043 1.021.152 1.496-5.454-.266-10.28-2.88-13.522-6.861a6.524 6.524 0 00-.902 3.313v.001a6.57 6.57 0 002.914 5.451 6.453 6.453 0 01-2.994-.823l.033.017v.072a6.592 6.592 0 005.213 6.44l.043.008a6.403 6.403 0 01-1.662.215h-.061.003c-.419 0-.843-.024-1.242-.112.85 2.598 3.261 4.509 6.13 4.57a13.093 13.093 0 01-8.122 2.8H1.57h.001-.062c-.531 0-1.055-.034-1.569-.099l.061.006c2.826 1.846 6.287 2.944 10.004 2.944h.063-.003c12.072 0 18.672-10 18.672-18.669 0-.288-.01-.57-.024-.848a13.203 13.203 0 003.258-3.355l.03-.047z"/></symbol></defs></svg>